<svg width="200" height="200" viewBox="0 0 200 200" xmlns="http://www.w3.org/2000/svg" version="1.1">
  <g fill="currentColor" transform="matrix(0.390625, 0, 0, 0.386951, 0.000007, 0.940601)">
    <path
      d="m502.47,256.83c-6.49,-61.07 -40.69,-110.46 -86.08,-144.1c-45.89,-34.04 -103.3,-52.72 -157.68,-52.76c-56.44,0.01 -91.26,7.18 -114.31,17.08c-22.77,9.65 -33.77,22.98 -39.81,30.85c-24.68,4.03 -49.26,18.35 -68.77,38.69c-20.71,21.75 -35.77,50.83 -35.82,82.79c0,34.97 8.11,64.52 24.3,86.5c14.35,19.6 35.29,32.47 60.21,37.15c1.63,9.45 5.56,20 13.67,29.64c8.41,10.06 19.89,17.39 33.45,22.04c13.59,4.67 29.33,6.83 47.24,6.85l75.08,0c1.85,4.73 4.11,9.24 7.22,13.21c7.64,9.79 18.65,16.66 31.83,20.96c13.25,4.33 28.86,6.29 47,6.3c8.91,0 17.34,-0.41 24.51,-0.75l0.02,0c5.14,-0.28 9.56,-0.47 12.7,-0.47c9.47,0 18.53,-2.31 26.32,-6.82c7.79,-4.5 14.26,-11.17 18.68,-19.36c2.23,-4.15 3.7,-8.51 4.8,-12.9c16.72,-3.13 30.6,-9.24 41.4,-17.03c12.67,-9.12 21.37,-20.11 27.29,-30.09c11.55,-19.55 16.26,-41.25 16.28,-61.38c-0.02,-17.17 -3.49,-33.15 -9.53,-46.4zm-26.61,96.02c-4.65,7.84 -11.35,16.24 -20.91,23.12c-9.58,6.87 -22.04,12.38 -39.06,14.32l-9.52,1.07l-0.7,9.56c-0.29,4.12 -1.58,8.76 -3.74,12.76c-2.51,4.57 -5.83,7.96 -9.92,10.33c-4.1,2.36 -9,3.71 -14.78,3.72c-4.07,0 -8.71,0.24 -13.86,0.49l1.93,-0.08l-1.92,0.08c-7.14,0.36 -15.18,0.74 -23.38,0.74c-21.95,0.04 -38.3,-3.36 -48.75,-8.86c-5.25,-2.74 -9.06,-5.91 -11.88,-9.51c-2.81,-3.63 -4.72,-7.74 -5.79,-12.89l-1.9,-9.22l-92.81,0c-16.01,0 -29.3,-1.99 -39.73,-5.57c-10.44,-3.63 -17.94,-8.68 -23.28,-15.06c-6.96,-8.3 -9.02,-17.32 -9.29,-25.24l-0.31,-10.07l-10.02,-1.05c-23.52,-2.58 -40.89,-12.52 -53.38,-29.31c-12.42,-16.81 -19.79,-41.3 -19.79,-72.8c-0.05,-24.42 11.87,-48.47 29.44,-66.87c17.46,-18.46 40.46,-30.68 59.42,-32.47l4.35,-0.45l2.96,-3.2c1.33,-1.46 2.39,-2.85 3.3,-4.01c5.98,-7.47 12.11,-15.8 31,-24.13c18.85,-8.16 50.65,-15.23 105.18,-15.22c49.07,-0.03 102.27,17.23 143.93,48.22c41.72,31.05 71.78,75.15 77.09,129.58l0.2,2.1l0.93,1.88c4.84,9.78 8.09,23.61 8.06,38.42c0,16.55 -3.94,34.22 -13.07,49.62z" />
    <path
      d="m357.04,146.42l24.06,0c5.17,0 9.38,-4.24 9.38,-9.58c0,-5.21 -4.21,-9.43 -9.38,-9.43l-24.06,0c-5.33,0 -9.55,4.22 -9.55,9.43c0,5.34 4.22,9.58 9.55,9.58z" />
    <path
      d="m244.21,237.31c0,5.28 4.25,9.56 9.5,9.56c5.16,0 9.48,-4.28 9.48,-9.56l0,-51.82c0,-2.4 0.71,-2.96 0.88,-3.18c3.02,-2.97 14.28,-2.97 22.17,-2.97l0.3,0.11l62.22,0c1.21,0 2.48,-0.11 3.91,-0.11c5.01,-0.22 11.2,-0.43 13.8,2.07c1.64,1.61 2.6,5.19 2.6,9.99l0,31.81l0,1.42c-0.2,6.54 -0.24,17.56 7.13,25.04c2.87,2.96 8.2,6.46 16.89,6.46l48.89,0c5.14,0 9.35,-4.23 9.35,-9.55c0,-5.2 -4.21,-9.52 -9.35,-9.52l-48.89,0l-3.41,-0.81c-1.74,-1.79 -1.63,-8.33 -1.63,-11.46l0,-33.39c0,-10.31 -2.88,-18.28 -8.39,-23.6c-8.48,-8.14 -20.02,-7.8 -27.63,-7.48c-1.26,0 -2.3,0.04 -3.27,0.04l-31.36,0c0.37,-2.62 0.37,-5.26 0.27,-7.63l0,-27.6c0,-5.19 -4.26,-9.48 -9.44,-9.48c-5.29,0 -9.43,4.29 -9.43,9.48l0,27.75c0,2.22 0,5.74 -0.47,6.65c0,0 -1.31,0.83 -6.32,0.83c-1.44,0 -2.99,0 -4.68,0c-12.92,-0.16 -27.78,-0.2 -36.62,8.48c-2.89,2.92 -6.5,8.2 -6.5,16.64l0,51.83z" />
    <path
      d="m213.68,159.71c5.3,0 9.55,-4.35 9.55,-9.53l0,-13.59l15.93,0c5.16,0 9.42,-4.27 9.42,-9.56c0,-5.16 -4.26,-9.49 -9.42,-9.49l-15.93,0l0,-10.47c0,-5.23 -4.25,-9.52 -9.55,-9.52c-5.16,0 -9.42,4.29 -9.42,9.52l0,43.11c0,5.18 4.26,9.53 9.42,9.53z" />
    <path
      d="m110.84,173.68l39.47,0c6.44,-0.23 12.56,-0.23 15.45,2.81c2.56,2.5 3.97,8.11 3.97,16.17l0,37.05c0,5.24 4.23,9.55 9.58,9.55c5.15,0 9.46,-4.31 9.46,-9.55l0,-7.88l14.88,0c5.25,0 9.44,-4.28 9.44,-9.51c0,-5.25 -4.18,-9.6 -9.44,-9.6l-14.88,0l0,-10.06c0,-13.67 -3.14,-23.35 -9.63,-29.74c-8.42,-8.45 -19.8,-8.36 -28.88,-8.29l-39.42,0c-5.38,0 -9.51,4.32 -9.51,9.48c0,5.28 4.13,9.57 9.51,9.57z" />
    <path
      d="m135.89,229.1c0,-5.25 -4.36,-9.56 -9.48,-9.56l-66.62,0c-5.26,0 -9.55,4.31 -9.55,9.56c0,5.23 4.29,9.53 9.55,9.53l24.15,0l0,17.34c0,5.28 4.19,9.51 9.38,9.51c5.41,0 9.59,-4.23 9.59,-9.51l0,-17.34l23.5,0c5.12,0 9.48,-4.3 9.48,-9.53z" />
    <path
      d="m194.58,291.41c1.66,0 3.24,0 4.64,0l76.71,0c17.5,0 30.77,-4.64 39.6,-13.88c13.56,-14.37 12.62,-35.64 11.92,-49.69c-0.13,-2.68 -0.25,-5.21 -0.25,-7.32c0,-5.3 -4.25,-9.51 -9.61,-9.51c-5.18,0 -9.37,4.21 -9.37,9.51c0,2.41 0.13,5.17 0.25,8.11c0.59,12.25 1.24,27.34 -6.85,35.87c-4.94,5.26 -13.68,7.89 -25.69,7.89l-76.71,0c-1.33,0 -2.7,0 -4.34,0c-15.14,-0.23 -40.59,-0.64 -56.76,15.32c-9.06,8.94 -13.68,21.55 -13.68,37.4c0,5.15 4.17,9.52 9.49,9.52c5.18,0 9.51,-4.37 9.51,-9.52c0,-10.77 2.59,-18.58 8.05,-23.92c10.45,-10.26 30.12,-9.95 43.09,-9.78z" />
    <path
      d="m323.96,332.62c0,-5.17 -4.17,-9.51 -9.48,-9.51l-120.37,0c-5.19,0 -9.54,4.34 -9.54,9.51c0,5.26 4.35,9.51 9.54,9.51l36.81,0l0,18.99c0,5.32 4.22,9.5 9.46,9.5c5.25,0 9.49,-4.18 9.49,-9.5l0,-18.99l64.62,0c5.3,0 9.47,-4.25 9.47,-9.51z" />
    <path
      d="m377.89,370.06l-4.47,0l0,-17.69c0,-5.38 -4.18,-9.53 -9.48,-9.53c-5.26,0 -9.5,4.15 -9.5,9.53l0,17.69l-32.94,0c-5.24,0 -9.5,4.25 -9.5,9.53c0,5.23 4.26,9.45 9.5,9.45l56.39,0c5.21,0 9.48,-4.22 9.48,-9.45c0,-5.28 -4.27,-9.53 -9.48,-9.53z" />
    <path
      d="m421.58,323.11l0,-15.52l3.42,0c5.36,0 9.6,-4.17 9.6,-9.43c0,-5.25 -4.25,-9.55 -9.6,-9.55l-66.46,0c-5.23,0 -9.51,4.3 -9.51,9.55c0,5.26 4.28,9.43 9.51,9.43l43.98,0l0,15.52c0,5.36 4.31,9.51 9.56,9.51c5.23,0 9.5,-4.15 9.5,-9.51z" />
    <path
      d="m451.33,347.91l-24.04,0c-5.3,0 -9.54,4.18 -9.54,9.47c0,5.28 4.24,9.43 9.54,9.43l24.04,0c5.33,0 9.62,-4.15 9.62,-9.43c0,-5.29 -4.29,-9.47 -9.62,-9.47z" />
  </g>
</svg>