<svg width="200" height="200" viewBox="0 0 200 200" version="1.1" xmlns="http://www.w3.org/2000/svg">
  <g fill="currentColor">
    <path
      d="M 0 134.456 C 4.843 124.337 12.648 124.68 21.776 128.565 C 20.815 118.714 17.904 110.303 15.468 101.797 C 14.346 97.879 13.424 94.003 13.626 89.869 C 13.886 84.555 16.561 81.352 21.762 80.962 C 25.173 80.706 26.811 79.649 28.19 76.278 C 31.3 68.673 40.015 67.171 46.022 73.136 C 48.744 75.839 50.766 77.031 54.729 75.509 C 59.882 73.531 64.334 75.684 67.376 80.245 C 68.762 82.323 69.778 84.647 70.909 86.759 C 78.008 86.423 80.917 83.342 80.374 76.205 C 79.761 68.142 80.193 59.999 80.193 51.89 C 80.193 39.996 85.662 35.479 97.614 37.442 C 98.41 37.573 99.245 37.459 100.034 37.459 C 104 13.033 104.847 12.105 121.672 13.995 C 124.616 7.533 128.178 1.174 136.75 1.83 C 144.527 2.425 147.782 8.193 149.512 14.588 C 151.158 15.676 152.345 14.813 153.568 14.656 C 164.602 13.238 170.665 18.405 170.735 29.624 C 170.846 47.548 170.77 65.473 170.773 83.398 C 170.773 85.44 170.773 87.482 170.773 91.42 C 173.663 86.253 175.638 82.759 178.582 80.051 C 182.626 76.332 187.167 74.424 192.57 77.142 C 197.551 79.648 201.084 86.249 199.696 91.643 C 195.19 109.161 190.565 126.659 184.396 143.685 C 182.275 149.537 179.055 154.903 174.838 159.476 C 166.701 168.299 162.924 178.471 164.208 190.473 C 164.365 191.944 164.216 193.459 164.106 194.946 C 163.986 196.567 163.325 197.913 161.477 197.955 C 159.668 197.996 158.661 196.711 158.599 195.131 C 158.177 184.488 156.527 173.09 164.257 164.508 C 182.937 143.769 186.349 117.062 193.955 91.972 C 195.078 88.27 193.934 84.579 190.216 82.604 C 186.312 80.53 183.77 83.178 181.526 85.871 C 178.647 89.327 176.426 93.198 174.521 97.284 C 170.572 105.755 164.674 112.084 155.354 114.825 C 146.646 117.386 140.571 122.986 137.18 131.492 C 136.453 133.316 135.973 136.362 133.084 135.228 C 130.04 134.032 131.43 131.269 132.249 129.167 C 135.766 120.136 142.012 113.811 151.18 110.455 C 153.578 109.577 156.082 108.85 158.285 107.608 C 162.969 104.966 165.442 101.626 165.322 95.364 C 164.908 73.832 164.523 52.275 165.588 30.739 C 165.892 24.587 162.427 19.621 157.636 19.464 C 153.078 19.314 149.127 24.018 149.07 30.384 C 148.924 46.6 149.048 62.818 148.969 79.035 C 148.957 81.606 149.758 84.554 147.037 86.652 C 143.208 85.124 144.346 81.938 144.333 79.482 C 144.227 60.065 144.287 40.646 144.264 21.228 C 144.253 12.408 140.691 7.164 135.18 7.721 C 129.769 8.269 127.518 14.185 127.727 22.551 C 128.211 41.952 128.027 61.372 127.954 80.783 C 127.946 82.917 128.088 86.294 124.983 86.294 C 121.425 86.293 122.587 82.851 122.573 80.798 C 122.464 64.795 122.511 48.79 122.504 32.786 C 122.503 31.08 122.666 29.343 122.413 27.672 C 121.679 22.818 119.622 18.851 113.945 19.2 C 108.69 19.524 106.754 23.221 106.736 28.049 C 106.678 43.413 106.688 58.777 106.669 74.14 C 106.666 76.701 106.732 79.265 106.611 81.821 C 106.512 83.895 106.732 86.538 103.685 86.566 C 100.59 86.595 100.789 83.959 100.774 81.875 C 100.712 72.913 100.747 63.95 100.718 54.988 C 100.712 53.071 100.93 51.063 100.447 49.257 C 99.381 45.265 97.084 42.176 92.461 42.372 C 88.206 42.552 85.444 45.471 85.308 49.303 C 84.892 61.021 85.099 72.762 85.08 84.494 C 85.079 84.911 85.119 85.41 85.34 85.734 C 97.542 103.648 96.822 125.332 102.615 145.113 C 106.152 157.191 102.721 169.196 101.078 181.134 C 100.549 184.974 100.63 188.771 100.279 192.572 C 100.091 194.618 101.415 198.061 97.706 197.926 C 94.66 197.815 95.538 194.764 95.583 192.81 C 95.737 186.224 95.349 179.644 96.803 173.081 C 99.236 162.103 98.611 151.189 95.849 140.224 C 92.477 126.838 89.728 113.292 86.794 99.797 C 86.187 97.006 85.356 94.381 83.017 92.623 C 81.077 91.165 78.872 90.255 76.506 91.795 C 74.314 93.22 73.545 95.012 74.287 97.784 C 76.098 104.558 77.542 111.431 79.181 118.252 C 79.73 120.535 80.415 122.783 78.593 124.951 C 74.463 125.167 74.669 121.585 73.986 119.275 C 71.274 110.101 68.923 100.82 66.286 91.623 C 65.588 89.187 64.546 86.796 63.31 84.581 C 61.594 81.504 59.005 79.685 55.358 81.336 C 51.782 82.954 52.307 85.931 53.144 89 C 56.163 100.071 59.115 111.161 62.091 122.244 C 62.63 124.255 63.914 126.769 60.788 127.485 C 57.918 128.143 57.584 125.554 57.007 123.448 C 53.407 110.318 50.356 97.031 45.788 84.178 C 45.291 82.781 44.979 81.25 44.187 80.038 C 42.079 76.812 39.253 74.033 35.234 76.362 C 31.646 78.44 31.975 81.952 33.796 85.364 C 40.539 97.992 40.84 112.436 45.098 125.771 C 45.593 127.321 45.87 129.503 43.642 130.069 C 40.596 130.844 40.109 128.074 39.646 126.193 C 37.261 116.496 35.138 106.735 32.821 97.02 C 31.922 93.253 30.625 89.612 27.085 87.388 C 25.237 86.226 23.282 85.162 21.208 86.858 C 19.302 88.415 18.002 90.278 18.766 92.967 C 22.659 106.662 26.134 120.454 29.376 134.324 C 30.47 139.004 34.452 143.38 40.761 144.209 C 47.718 145.123 54.658 146.752 59.786 152.303 C 61.535 154.196 63.078 156.141 62.863 158.776 C 60.109 160.78 58.636 159.165 57.191 157.516 C 52.516 152.18 46.332 150.146 39.543 149.851 C 35.359 149.669 32.387 147.971 29.723 144.809 C 25.737 140.077 21.403 135.612 15.521 133.129 C 13.137 132.122 10.684 131.068 8.372 133.267 C 6.069 135.458 6.638 138.021 7.959 140.313 C 14.45 151.573 20.879 162.877 27.712 173.929 C 30.831 178.973 36.247 181.565 41.481 184.018 C 46.025 186.147 48.196 189.679 48.575 194.537 C 48.702 196.158 48.515 197.634 46.693 198.08 C 44.656 198.579 43.368 197.709 43.178 195.551 C 42.83 191.589 40.023 189.577 36.916 188.071 C 27.89 183.697 21.743 176.739 17.146 167.919 C 11.936 157.922 5.446 148.618 0.345 138.086 C 0 136.858 0 135.897 0 134.456 Z" />
  </g>
</svg>