<svg width="200" height="200" viewBox="0 0 200 200" version="1.1" xmlns="http://www.w3.org/2000/svg">
  <g fill="currentColor" transform="matrix(0.987944, 0, 0, 0.987944, -7.061942, -6.480315)">
    <path
      d=" M123.428467,209.000000 C121.838959,199.869675 124.107330,191.136688 126.844955,182.661636 C128.601822,177.222778 134.031387,176.041855 139.214340,175.980896 C144.529297,175.918365 149.850403,176.553650 155.168549,176.549255 C167.205338,176.539322 173.596634,170.134781 173.749985,158.064209 C173.834610,151.404129 173.720779,144.741730 173.734695,138.080460 C173.749939,130.788559 176.022858,127.873573 183.236877,127.291573 C192.656647,126.531639 193.486847,126.241577 188.239349,117.100075 C185.837540,112.915939 183.617416,108.627625 181.222519,104.439377 C177.181870,97.372932 174.918106,89.835632 174.779343,81.663559 C174.167007,45.602077 144.786209,21.451180 117.434029,16.465519 C93.292702,12.065119 70.643661,15.954052 50.778496,31.135653 C34.540852,43.544987 25.875441,60.286457 24.338324,80.609825 C22.887440,99.793053 27.948271,117.329727 39.352028,132.722153 C50.220520,147.392075 50.960766,163.257858 46.945816,180.188751 C44.764614,189.386810 42.867382,198.671127 42.013878,208.561386 C39.958332,209.000000 37.916668,209.000000 35.437500,209.000000 C33.948303,200.538803 36.792221,192.582779 38.202198,184.443314 C39.306301,178.069550 40.799526,171.747467 41.578796,165.336670 C42.898258,154.481949 38.641525,145.406326 32.655766,136.514053 C15.667274,111.276474 10.996169,83.840981 22.690178,55.388245 C34.384483,26.934788 57.136898,11.851763 87.274010,7.631797 C106.940620,4.877970 125.886322,7.181394 143.220291,17.423244 C167.594986,31.825138 181.603516,52.771877 182.317871,81.654572 C182.492020,88.696106 184.741531,95.001404 188.233475,101.003059 C191.748947,107.045105 195.172272,113.141754 198.567978,119.252251 C202.747528,126.773239 200.065186,132.646469 191.696548,134.449005 C190.882660,134.624329 190.081406,134.868378 189.261703,135.005051 C181.314835,136.330215 181.319305,136.325577 181.334137,144.202713 C181.344177,149.533417 181.387360,154.864700 181.327652,160.194748 C181.171173,174.162048 171.939743,183.786697 158.000427,184.235626 C153.025177,184.395859 148.010056,184.098114 143.046265,183.645798 C136.170868,183.019287 133.686844,184.673386 132.346558,191.576218 C131.270203,197.119873 130.303986,202.684906 129.144440,208.620239 C127.285645,209.000000 125.571281,209.000000 123.428467,209.000000 z" />
    <path
      d=" M46.158211,79.504974 C52.028690,45.208496 88.023300,25.473553 121.377838,37.924107 C146.529816,47.312817 160.904419,72.104698 157.221191,99.743156 C153.801254,125.405869 132.900314,145.699020 107.062294,148.443466 C75.586128,151.786789 48.442410,129.318924 45.633987,97.786987 C45.098610,91.775978 45.020790,85.854675 46.158211,79.504974 M65.610214,95.514084 C62.783333,95.459007 59.952278,95.481064 57.130672,95.328453 C53.921810,95.154900 53.098686,96.750748 53.424072,99.648666 C55.412506,117.357765 70.330559,134.600403 87.792068,139.291779 C97.781883,141.975739 98.100456,141.642792 97.972908,131.314346 C97.929176,127.772469 97.459000,125.664825 93.184128,124.827080 C79.834953,122.211029 72.473579,113.093353 68.674080,100.592354 C68.148857,98.864265 68.032272,96.953590 65.610214,95.514084 M95.014763,57.482994 C100.406975,54.967518 97.255516,50.202900 97.781509,46.468731 C98.217270,43.375130 95.949814,42.333664 93.272293,42.805187 C72.300003,46.498493 57.143410,60.553471 53.435131,82.609482 C53.173622,84.164856 52.698925,86.360703 54.636292,87.053711 C58.313332,88.368996 62.262726,87.720337 65.964699,87.183182 C68.371178,86.834000 68.039406,83.679268 68.585876,81.693962 C72.238106,68.425621 80.425316,60.053246 95.014763,57.482994 M141.630157,119.121483 C145.181396,113.651093 148.204361,107.937469 149.398392,101.444305 C149.747589,99.545410 150.571915,97.351852 148.632523,95.876427 C144.848816,92.997894 135.760818,96.075966 134.533508,100.523041 C130.957870,113.479225 122.740181,121.876610 109.682716,125.150597 C106.478966,125.953896 105.076477,127.329536 105.258858,130.541870 C105.371819,132.531387 105.385727,134.534012 105.306923,136.525299 C105.172386,139.925003 106.627251,140.892548 109.922928,140.183289 C123.005905,137.367752 133.587830,130.817078 141.630157,119.121483 M132.134598,53.356876 C124.216820,47.784313 115.937416,43.159496 105.823051,42.857708 C104.800293,46.217487 105.535980,49.226231 105.263298,52.167267 C104.921310,55.855774 106.397018,57.206974 110.184143,57.937115 C122.396149,60.291542 130.164383,68.047607 133.943848,79.710709 C136.551727,87.758408 136.354187,87.822357 144.784012,87.653664 C145.283493,87.643661 145.783005,87.629677 146.282516,87.628166 C149.560104,87.618279 150.634811,86.264244 149.883026,82.881760 C147.305405,71.284500 141.857468,61.465862 132.134598,53.356876 M98.244186,72.043961 C98.310356,69.010452 99.598000,65.014427 94.243118,65.575348 C86.308853,66.406448 76.628929,76.247055 75.739632,83.905220 C75.517807,85.815498 76.117401,86.932068 77.984642,86.934555 C82.796577,86.940964 88.156540,88.602058 91.165558,82.709061 C91.652908,81.754608 92.756157,80.907639 93.772423,80.468002 C97.199654,78.985344 98.280167,76.291786 98.244186,72.043961 M121.483467,87.620773 C124.385429,87.227020 128.884262,88.223373 127.097023,82.871513 C124.235199,74.301834 118.320625,68.558693 109.573357,65.886894 C108.425018,65.536140 107.309052,65.218658 106.277054,66.078857 C104.673706,67.415298 104.837631,76.843506 106.774406,77.710739 C110.909111,79.562111 113.933273,82.322395 116.135757,86.240173 C117.062393,87.888451 119.030441,87.574890 121.483467,87.620773 M98.185951,108.745636 C98.039970,108.108482 98.109573,107.146072 97.714729,106.884346 C93.643166,104.185463 90.737167,100.433533 87.548523,96.816284 C84.853638,93.759163 80.395607,95.246834 76.688217,95.838051 C75.634789,96.006035 75.709091,97.302292 75.833672,98.380821 C76.936867,107.931931 87.436111,117.070274 97.237480,116.738831 C98.236435,114.462318 97.925438,111.932655 98.185951,108.745636 M113.191147,115.801125 C121.293427,111.735435 125.622292,104.994278 127.942368,95.379700 C122.949539,96.103279 118.168846,93.050659 115.094574,98.052841 C113.194527,101.144424 110.885513,103.458244 107.815239,105.251175 C103.158661,107.970444 104.884193,112.670021 105.832680,115.967842 C106.905975,119.699585 110.186195,116.449753 113.191147,115.801125 M95.638748,91.050697 C95.203339,95.074333 96.734322,97.929916 100.847679,98.644623 C104.992668,99.364822 107.422615,96.969460 108.488747,93.239212 C109.540916,89.557854 107.593407,86.954918 104.390152,85.811928 C100.232750,84.328484 97.429070,86.404236 95.638748,91.050697 z" />
  </g>
</svg>