<svg width="200" height="200" viewBox="0 0 200 200" version="1.1" xmlns="http://www.w3.org/2000/svg">
  <g fill="currentColor" transform="matrix(1.002071, 0, 0, 1.002071, -2.487128, -2.030048)">
    <path
      d=" M151.629608,16.421299 C154.163498,21.535778 157.421173,23.766270 163.341644,23.826488 C172.748627,23.922169 182.431519,32.892235 185.165497,42.542915 C186.424789,46.988144 188.068695,51.413704 186.501892,56.221661 C185.785004,58.421513 187.063248,59.952236 189.018219,61.085361 C200.721954,67.868927 203.669754,78.968925 200.822418,90.783066 C199.338348,96.940750 199.575638,101.640106 200.685287,107.728340 C202.408630,117.183655 204.069183,128.159790 195.436050,135.921692 C189.984436,140.823151 185.255096,145.610214 182.501282,152.758957 C180.437622,158.116058 174.832870,161.014542 169.026291,162.106857 C166.187073,162.640961 164.129059,163.716354 162.488083,166.083374 C159.220612,170.796463 154.650970,173.776321 149.077042,174.999741 C146.677353,175.526474 145.191589,176.618683 144.554932,178.987717 C142.038040,188.352997 136.303436,194.574844 126.558960,196.188110 C115.597206,198.002869 107.156822,193.354645 100.416527,184.988159 C98.985130,183.211395 98.309341,180.795654 95.713760,179.517014 C90.937889,183.528473 85.707108,186.670868 79.127846,187.580368 C66.002190,189.394882 55.326801,184.512650 48.748478,172.535980 C47.080906,169.499939 45.322006,168.147186 41.788277,168.334641 C23.646441,169.296967 12.493635,151.040894 15.018808,136.000290 C15.590924,132.592621 14.968377,130.546875 12.464503,128.195740 C0.388558,116.856407 -0.845759,99.553711 9.387501,86.241806 C10.974951,84.176773 11.456297,82.525940 10.711563,79.955093 C6.587095,65.717316 13.263191,51.817997 27.026985,46.035259 C30.210678,44.697662 31.987581,43.017513 32.934792,39.473545 C36.951454,24.445295 50.063862,16.617708 67.045502,18.965385 C70.028572,19.377789 71.933319,18.794823 74.021011,16.644144 C84.839584,5.499209 96.422935,4.073116 109.500847,12.372114 C112.123116,14.036160 113.742294,14.202946 116.454147,12.434784 C128.749847,4.417845 140.081284,5.761656 151.629608,16.421299 M62.825554,141.449951 C58.132931,144.961258 54.683331,149.329086 53.695080,155.254547 C52.364449,163.232849 54.293556,170.357956 60.702152,175.447922 C67.881081,181.149689 76.033478,181.307556 84.278168,177.752579 C91.936829,174.450287 94.347878,168.279709 93.841118,160.314743 C93.492630,154.837418 93.838585,149.319672 93.715073,143.823578 C93.303841,125.523750 95.830292,107.622368 101.643066,90.298462 C108.244438,70.624275 110.766991,50.507557 109.763206,29.843571 C109.375092,21.853945 105.277107,17.224333 96.556396,15.583276 C89.140816,14.187816 81.527016,18.174318 78.927139,24.660946 C76.070351,31.788536 77.390297,37.884621 82.699150,43.445484 C84.364861,45.190269 86.857101,47.767208 83.920753,50.308640 C81.386215,52.502308 79.286873,50.234730 77.447968,48.574127 C72.655914,44.246712 69.885788,38.829979 69.707596,32.370266 C69.597580,28.381987 67.771019,26.719633 63.994442,26.330303 C57.096176,25.619148 51.065563,27.695543 46.003532,32.166553 C41.247093,36.367645 38.821354,41.872993 40.108624,48.268829 C41.416023,54.764687 46.043201,58.539658 52.130043,60.407345 C54.351498,61.088974 56.591908,61.345951 56.178925,64.295219 C55.735924,67.458878 53.119167,67.495857 50.767235,67.310692 C43.456310,66.735092 38.284710,62.598030 35.122101,56.386974 C32.830112,51.885738 30.294977,52.222019 26.849638,54.399075 C24.431843,55.926842 22.261534,57.699375 20.671303,60.128754 C17.396343,65.131882 16.401754,70.647888 17.572418,76.396614 C18.578819,81.338692 22.093962,83.875252 26.998358,84.729446 C28.684826,85.023178 29.347916,86.414795 29.399658,88.092728 C29.454229,89.862419 28.443924,90.823082 26.974487,91.499550 C24.856716,92.474472 22.695122,92.311012 20.655029,91.461212 C16.583591,89.765244 14.328347,91.830696 12.675213,95.134560 C9.350253,101.779655 9.282987,108.641518 11.956915,115.443153 C14.177829,121.092445 22.145134,126.895668 26.948092,126.444839 C30.335775,126.126846 35.116776,124.089279 35.611229,128.888077 C36.131123,133.933838 30.756836,132.972534 27.329542,133.457062 C24.596256,133.843445 22.773920,135.013992 22.330557,138.074829 C20.690435,149.397659 29.681883,160.270874 41.048241,160.723953 C44.044155,160.843384 45.427212,160.197876 45.824623,156.765182 C46.707672,149.137772 49.870274,142.404861 55.591835,137.057404 C57.193077,135.560852 58.955444,134.989822 61.067223,135.959198 C63.269234,136.970001 63.877537,138.631332 62.825554,141.449951 M115.505844,64.814575 C114.184822,75.097977 110.717766,84.843346 107.976433,94.769241 C105.693863,103.034042 103.439346,111.298058 102.651436,120.049408 C107.294128,121.185860 111.620880,120.417946 115.897644,120.568398 C121.182610,120.754311 126.588448,121.075043 126.821609,113.364754 C126.871994,111.698830 128.385376,110.852173 130.063904,110.881226 C131.845978,110.912056 132.764923,112.133408 133.060745,113.708160 C133.303894,115.002434 133.294418,116.358452 133.275513,117.685379 C133.139572,127.218964 136.236862,134.670837 146.096558,137.851807 C146.716995,138.051971 147.307632,138.421799 147.835999,138.815002 C149.237961,139.858368 150.358124,141.173004 149.815552,143.030090 C149.252747,144.956558 147.527878,145.356430 145.795990,145.255463 C144.326111,145.169754 142.820343,144.941818 141.423798,144.488937 C135.717590,142.638565 131.604370,138.806625 129.170563,133.443604 C127.313232,129.350952 124.588036,127.884453 120.160881,128.243958 C115.526604,128.620285 110.836479,128.424850 106.174934,128.310043 C102.908234,128.229584 101.265762,129.302017 101.306656,132.891068 C101.437599,144.384186 101.073647,155.888718 101.436897,167.371902 C101.867340,180.979218 113.666176,190.385193 126.494560,187.769257 C132.086868,186.628891 135.427948,182.930634 137.278793,177.719894 C138.909653,173.128586 134.518936,172.333054 132.424744,170.094177 C131.970306,169.608337 131.392685,169.212234 131.032181,168.668472 C129.581070,166.479706 127.335121,164.105652 129.759460,161.564606 C132.455673,158.738632 134.399506,161.285812 136.368118,163.168701 C142.700684,169.225464 149.519424,169.018234 155.586090,162.579453 C157.061737,161.013306 158.344940,159.243042 159.558258,157.458923 C160.771439,155.675049 162.232864,154.774078 164.473907,154.608871 C172.997696,153.980560 176.825958,150.869431 178.542038,142.546936 C179.297379,138.883713 181.033188,136.864700 184.254288,135.114136 C191.750427,131.040222 196.634155,121.404671 195.364777,114.297272 C193.586777,104.341858 186.943649,98.796181 176.121063,98.247261 C173.612106,98.120010 170.489960,98.324692 170.568192,94.842766 C170.634445,91.893677 173.414108,91.016586 176.013016,90.729393 C179.358047,90.359764 182.628540,90.900093 185.889191,91.699371 C191.583191,93.095169 194.245697,91.092979 194.667633,85.266029 C195.301987,76.505821 190.132248,69.457153 181.490005,67.299080 C175.496338,65.802383 174.968796,64.448021 177.929916,59.296623 C181.433731,53.201134 179.695435,47.244022 176.477875,41.810341 C173.194763,36.265968 168.932541,31.589096 161.693573,31.318918 C158.729065,31.208273 157.444397,32.561337 157.371628,35.459427 C157.309418,37.937508 157.537369,40.437271 156.595917,42.865032 C155.714600,45.137684 154.426941,46.757076 151.809402,46.172588 C149.127029,45.573627 148.597626,43.527813 149.181274,41.131725 C149.943512,38.002468 149.737396,34.829288 149.658463,31.677975 C149.430847,22.591278 140.954285,15.229286 130.984741,15.344824 C121.893486,15.450183 117.348282,20.709667 117.300705,31.122007 C117.250587,42.091969 117.935326,53.098804 115.505844,64.814575 z" />
    <path
      d=" M128.965027,78.905495 C131.853256,77.926956 134.426926,77.255295 136.899353,76.316887 C141.291977,74.649689 142.189011,72.325150 140.027954,68.221199 C139.026505,66.319389 137.673935,64.605881 136.576614,62.750202 C135.486145,60.906116 135.007751,58.867352 136.955658,57.380630 C138.678146,56.065971 140.695633,56.776165 141.920364,58.187687 C146.046219,62.942852 150.618179,67.630821 148.757141,74.854439 C148.209595,76.979721 149.504684,78.318024 150.589310,79.757301 C152.787918,82.674812 155.122818,85.493919 157.227692,88.476288 C158.702209,90.565491 158.958893,92.991493 156.956955,94.844597 C154.565704,97.058052 153.148560,94.375809 151.513657,93.271385 C150.848969,92.822372 150.259262,92.126755 149.879028,91.413483 C146.454926,84.990318 142.121002,81.398598 134.361725,85.100327 C132.373672,86.048767 129.239319,86.072144 127.435799,83.783867 C126.041321,82.014595 126.965843,80.351913 128.965027,78.905495 z" />
    <path
      d=" M156.868484,122.623802 C156.506821,119.626122 157.157166,116.961533 160.021820,117.096222 C163.974869,117.282082 164.282944,121.238197 165.104385,124.114441 C165.725311,126.288559 164.979187,128.508881 162.619629,129.500595 C161.151871,130.117493 159.995560,129.116806 159.306870,127.942810 C158.390533,126.380722 157.723801,124.672218 156.868484,122.623802 z" />
  </g>
</svg>