<svg xmlns="http://www.w3.org/2000/svg" xmlns:xlink="http://www.w3.org/1999/xlink" version="1.1" id="Calque_1" x="0px" y="0px" viewBox="0 0 567.2 142.6" enable-background="new 0 0 567.2 142.6" xml:space="preserve" class="unscroll-logo svg replaced-svg">
 <defs>
   <linearGradient id="logo-gradient" x1="40%" y1="0%" x2="90%" y2="110%" >
     <stop offset="0%" stop-color="#ffc8c4">
       <animate attributeName="stop-color" values="#ffc8c4; #f0a8cc; #bf7ccf;#84acbd;#ffc8c4 " dur="5s" repeatCount="indefinite">
       </animate>
      </stop>
	   <stop offset="100%" stop-color="#578ac9">
        <animate attributeName="stop-color" values="#fff8c4; #e3b36b; #87a7c9;#b4e68a; #fff8c4" dur="5s" repeatCount="indefinite">
        </animate>
      </stop>
    </linearGradient>
  </defs>

	<g>
	<g id="wemaj">
		<path fill="#FFFFFF" d="M0,13.6h20.6l12.6,68l7-53.7c0.6-4.5,2.3-8.3,5.1-11.3c2.9-3,6.5-4.6,10.9-4.6c2.1,0,4.2,0.4,6.3,1.3    c5.9,2.2,9.3,7.1,10.3,14.5l6.8,53.5l12.7-67.6h20.6L96.9,99.4c-1.3,6.9-5.2,11.4-11.5,13.3c-1.8,0.6-3.5,0.8-5.2,0.8    c-4.2,0-7.8-1.3-10.9-4c-3-2.7-4.8-6.1-5.4-10.2L55.6,41L49,99.4c-0.5,4.1-2.3,7.5-5.5,10.2c-3.2,2.7-6.9,4-11.1,4    c-1.7,0-3.4-0.3-5.2-0.8c-6.5-2.1-10.3-6.5-11.5-13.3L0,13.6z"></path>
		<path fill="#FFFFFF" d="M120.6,55.4c0-1.2,0.1-2.5,0.4-3.8c2-9,7.9-13.5,17.8-13.5h25.4c10.3,0,16.1,4.9,17.4,14.7    c0.1,0.7,0.1,1.7,0.1,3.1v14.7l-42.3,16.2l0,1.2c0,3.4,1.2,5,3.7,5h38.5v18.8h-41c-4.9,0-8.6-0.7-11.1-2.1c-6-3.3-9-8.9-9-17V55.4    z M162.9,61.5v-0.7c-0.4-1.5-1.5-2.4-3.5-2.8c-0.3-0.1-0.6-0.1-1-0.1h-12.9c-2.7,0-4.5,0.9-5.5,2.8c-0.3,0.5-0.4,1.1-0.4,2v7.6    L162.9,61.5z"></path>
		<path fill="#FFFFFF" d="M193.8,55.9c0-4.2,0.8-7.5,2.4-10c3.4-5.1,8.3-7.7,14.7-7.7h14.3c7.2,0,12.1,2.2,14.6,6.6    c2.5-4.4,7.4-6.6,14.6-6.6h14.3c6.4,0,11.4,2.6,14.7,7.7c1.7,2.6,2.5,5.9,2.5,10v56h-18.7V62.6c0-3.7-1.7-5.6-5.2-5.6h-8.2    c-0.5,0-1.1,0.1-1.8,0.4c-2,0.7-2.9,2.2-2.9,4.3v50.2h-18.7V61.7c0-2.5-1.3-4.1-3.9-4.8h-8.9c-2.8,0-4.5,1.4-5.1,4.3    c0,0.1,0,0.3-0.1,0.6v0.7v49.3h-18.7V55.9z"></path>
		<path fill="#FFFFFF" d="M299,95.2v-15c0-5.5,1.6-9.8,4.8-12.9c3.2-3,7.6-4.6,13.1-4.6h24.9v-3.9c-0.1-1.6-1.4-2.6-4-2.9H299V38.2    h42.8c0.6,0,1.6,0.1,3.2,0.3c8.7,1,13.8,5.6,15.2,13.8c0.2,1.1,0.3,2.2,0.3,3.2v39.2c0,1.3-0.1,2.4-0.3,3.4    c-0.8,4.2-2.8,7.6-5.8,10.1c-3,2.5-6.6,3.8-10.8,3.8H318c-10.9,0-17.1-4.4-18.7-13.3C299.4,97.9,299.3,96.8,299,95.2z M318.6,92    c0.6,0.8,1.6,1.3,2.9,1.6c0.3,0.1,0.6,0.1,1,0.1h14.6c3.2,0,4.8-1.4,4.8-4.2v-5.2c0-1.8-0.8-3-2.4-3.8c-0.4-0.4-1.2-0.6-2.5-0.6    h-16.4c-1.6,0.3-2.5,1.5-2.8,3.7v5.8C317.7,90.4,318,91.2,318.6,92z"></path>
		<path fill="#FFFFFF" d="M360.7,123.7h7.1c0.5,0,0.8,0,1-0.1c3.1-0.4,4.6-2.2,4.6-5.3V38.2H392v85.1c0,6.1-1.7,10.8-5.2,14.2    c-3.5,3.4-8.2,5.1-14.3,5.1h-11.8V123.7z"></path>
	</g>
		<g fill="url('#logo-gradient')">
		<path class="in" fill="" d="M565.6,87.2c0.5,0,0.9,0.3,1.1,0.8c0.3,0.6,0.4,1.5,0.4,2.8c0,2.1-0.7,4.3-2,6.8c-1.3,2.4-3.3,4.7-6,6.8    c-2.6,2.1-5.9,3.9-9.7,5.3c-3.9,1.4-8.3,2.1-13.3,2.1c-4.7,0-8.9-0.8-12.7-2.3c-3.8-1.5-7-3.9-9.6-7.1c-2.6-3.2-4.7-7.3-6.1-12.3    c-1.5-5-2.2-11-2.3-18c-2.4,2-4.8,4.5-7.3,7.3c-2.5,2.9-4.8,5.8-7.1,8.7c-2.2,2.9-4.2,5.7-6,8.3c-1.8,2.6-3.1,4.5-4.1,5.9    c-1.4,2.1-2.5,3.8-3.4,5.2c-0.9,1.4-1.7,2.6-2.5,3.4c-0.8,0.9-1.7,1.5-2.7,1.9c-1,0.4-2.4,0.6-4,0.6c-1.5,0-2.9-0.2-4.2-0.7    c-1.3-0.5-2.4-1.1-3.3-1.8c-0.9-0.7-1.6-1.6-2.1-2.5c-0.5-0.9-0.8-1.9-0.8-2.8c0-0.9,0.1-2,0.2-3.2c0.1-1.2,0.3-2.5,0.4-3.8    c0.2-1.3,0.4-2.5,0.6-3.8c0.2-1.3,0.4-2.4,0.5-3.4c0.2-1.3,0.4-2.8,0.7-4.2c0.2-1.5,0.5-3.2,0.8-5c0.3-1.8,0.6-3.8,0.9-6    c0.3-2.2,0.6-4.7,0.8-7.4c0.3-3.2,0.6-6.3,0.9-9.3c0.3-3,0.6-6.1,1.1-9.3c0.3-1.9,0.6-3.6,1-5.2c0.4-1.6,1-2.9,1.8-4    c0.8-1.1,1.8-2,3.1-2.6c1.3-0.6,2.9-1,4.9-1c1.8,0,3.2,0.2,4.3,0.6c1.1,0.4,1.8,1,2.4,1.7c0.5,0.7,0.9,1.5,1,2.5    c0.1,0.9,0.2,1.9,0.2,2.8c0,0.5,0,1,0,1.4c0,0.4-0.1,0.8-0.1,1.2c-0.1,0.9-0.2,1.9-0.4,3.1c-0.2,1.2-0.5,3-1,5.2    c-0.5,2.2-1.1,5.2-1.9,8.9c-0.5,2.1-1,4.3-1.5,6.6c-0.5,2.2-1,4.4-1.5,6.4c-0.4,2-0.8,3.9-1.2,5.5c-0.3,1.6-0.5,2.9-0.6,3.8    c1.3-1.5,2.7-3.4,4.4-5.6c1.7-2.2,3.4-4.5,5.1-6.8c1.7-2.3,3.3-4.5,4.9-6.6c1.6-2.1,2.9-3.8,4-5c1.8-2,3.6-4,5.3-5.8    c1.7-1.8,3.5-3.4,5.4-4.8c1.9-1.4,3.8-2.4,5.9-3.2c2.1-0.8,4.3-1.2,6.8-1.2c1.4,0,2.6,0.2,3.4,0.5c0.8,0.3,1.5,0.8,1.9,1.3    c0.4,0.6,0.7,1.2,0.9,1.9c0.1,0.7,0.2,1.5,0.2,2.3v1.3c0,0.3-0.1,1.1-0.2,2.3c-0.1,1.2-0.3,2.5-0.5,3.9c-0.2,1.4-0.3,2.7-0.5,3.9    c-0.1,1.2-0.2,2-0.2,2.4c0,4.1,0.3,8,1,11.5c0.6,3.6,1.6,6.7,3,9.3c1.3,2.6,3.1,4.7,5.2,6.2c2.1,1.5,4.7,2.3,7.6,2.3    c2.1,0,3.9-0.1,5.4-0.4c1.5-0.2,3-0.6,4.5-1.2c1.5-0.6,2.9-1.3,4.5-2.2c1.5-0.9,3.3-2.1,5.3-3.4c0.7-0.6,1.5-1.1,2.3-1.6    c0.7-0.4,1.4-0.8,2.3-1.1C564,87.4,564.8,87.2,565.6,87.2z"></path>
			<g>

					<path class="in" fill="" d="M550.3,99.2l0.3-0.1l0.9-0.4c0.4-0.4,1.1-0.8,2-1.2c0.4-0.2,0.9-0.5,1.4-0.8c0.5-0.3,1-0.6,1.6-0.9       c-0.1-0.1-0.3,0,0.4-0.6c3.1-1.8,2.1-1.3,3.4-2.3l0.2-0.2c0.1-0.1,0.3-0.3,0.5-0.5c-0.2,0.1-0.4,0.3-0.6,0.4l-0.2,0.2       c-0.6,0.4-1.1,0.7-1.4,0.8l1.4-0.9l0.2-0.1l1.4-1c0.2-0.2,0.5-0.3,0.7-0.5c0.2-0.1,0.4-0.3,0.6-0.4c-0.6,0.1-1.1,0.2-0.6-0.3       c-0.3-0.1-0.2-0.4,0.1-0.7c0.3-0.4,0.7-0.8,0.9-1.1c-0.9,0.3-1.5,0.5-1.9,0.7c0-0.2,0.8-0.7,1.8-1.1c-0.1,0-0.2,0-0.4,0       c0.2,0,0.3,0,0.4,0c0.7-0.2,1.4-0.4,2.2-0.4c-0.4-0.1-0.8,0-0.6-0.1c0,0-0.8,0.1-1.5,0.3c-0.8,0.2-1.5,0.6-1.5,0.6       c-0.1,0,0-0.1,0.1-0.2c0,0-0.2,0.1-0.4,0.2c-0.2,0.1-0.3,0.2-0.3,0.2l0.6-0.2c0.2,0-0.1,0.2-0.5,0.4c-0.7,0.4-0.9,0.6-1.3,0.7       l-1.3,1.1l-0.1,0l-0.1,0c-0.1,0.1,0,0.1,0.1,0.1l0.1,0c0.6-0.2,3.3-2.2,1.5-0.6l-0.7,0.4c-0.2,0.1-0.4,0.3-0.6,0.5l0,0l0,0       c-1,0.7-2,1.4-2.5,1.9c-1.3,0.4-3,2.3-3.5,2c-2.3,1.2-5.2,2.5-8.2,3c-1.5,0.3-3,0.4-4.5,0.4c-1.4,0-2.9-0.1-4.2-0.4       c-0.5,0.1-0.8,0.3-1.2,0.4c-0.5,0.1-1.2,0.2-2.4-0.1c-0.5-0.2-1.1-0.7-0.9-0.6c0,0-0.4-0.2-0.8-0.4c-0.4-0.2-0.8-0.4-0.8-0.4       c0.9,0.6,2,1.2,2.5,1.5c-1.3-0.5-1.1-0.4-0.5,0c0.6,0.4,1.5,0.8,1.4,0.8c0,0-1-0.3-1.9-0.7c-0.9-0.4-1.8-1-1.8-1l0.4,0.3       c1.5,1,3.3,1.8,5.1,2.2c0.9,0.2,1.8,0.4,2.7,0.4c0.4,0,0.9,0.1,1.3,0.1l1.2,0c1.6,0,3.2,0,4.9-0.3c1.7-0.2,3.4-0.7,5-1.2       L550.3,99.2z"></path>
				<path class="in" fill="" d="M491.9,61.9l0.3,0.2c-1.5,1.9-3,3.8-4.5,5.8c-1.4,2-2.9,4-4.4,6c-1.5,2-3,4.1-4.5,6.1       c-1.6,2-3.2,4-4.8,6.1c1,0.4,2,0.8,2.9,1.3c0.2-1.4,0.4-2.7,0.7-4.1c0.3-1.4,0.6-2.8,0.9-4.2c0.6-2.8,1.3-5.7,2-8.6       c0.7-2.9,1.4-5.8,2-8.8c0.6-3,1.3-6,1.9-9c0.3-1.5,0.5-3.2,0.7-4.8l0.1-1.2l0-1.3c0-0.8-0.1-1.7-0.1-2.5c0-0.8-0.2-1.9-0.6-2.9       c-0.4-1-1.1-1.8-1.9-2.5c-0.8-0.7-1.8-1.1-2.7-1.4c-0.9-0.3-1.8-0.4-2.7-0.5c-1.7-0.1-3.5-0.1-5.3,0.3       c-0.9,0.2-1.9,0.6-2.7,1.1c-0.8,0.5-1.6,1.1-2.3,1.8c-1.4,1.5-2.2,3.2-2.8,4.9c-0.5,1.7-0.9,3.3-1.2,5       c-0.3,1.7-0.4,3.2-0.7,4.9c-0.2,1.6-0.4,3.2-0.6,4.8c-0.3,3.2-0.7,6.4-1,9.6c-0.4,3.2-0.7,6.4-1.2,9.5l-0.7,4.8l-0.8,4.8       c-0.5,3.2-1.1,6.4-1.5,9.6c-0.3,1.6-0.4,3.3-0.6,4.9c-0.1,0.8-0.1,1.7-0.2,2.5l-0.1,1.3l0,0.3l0,0.4c0,0.3,0.1,0.6,0.1,0.9       c0.4,2.3,1.7,4.1,3.2,5.5c1.5,1.4,3.2,2.3,5,2.9c1.9,0.6,3.8,0.8,5.6,0.7c0.9-0.1,1.9-0.2,2.9-0.4c1-0.3,2.1-0.8,2.9-1.4       c0,0-0.2,0.6-0.5,1.2c-0.3,0.6-0.7,1.1-0.7,1.1c1.5-0.7,2.8-1.7,3.7-2.8c0.9-1,1.6-2.1,2.2-3.1c1.1-1.9,2.2-3.7,3.3-5.6       c2.2-3.7,4.6-7.4,7-11c0.6-0.9,1.2-1.8,1.8-2.7c0.6-0.9,1.2-1.8,1.8-2.6c1.3-1.7,2.5-3.4,3.8-5.1l0.9-1.2l0.6-0.8       c0.4-0.5,0.8-1.1,1.3-1.7c0.9-1.1,1.9-2.3,3-3.5c0,0-0.8,0.6-1.6,1.3c-0.8,0.7-1.6,1.5-1.6,1.5c0.5-0.7,1.2-1.7,2.1-2.8       c0.5-0.5,1-1.1,1.6-1.7c0.3-0.3,0.6-0.6,0.9-0.9c0.1-0.1,0.1,0,0.1,0.1l0,0.3l0,0.5c0.2,2.5,0.6,5.8,1.1,9.1       c0.6,3.4,1.4,6.7,2.3,9.3l-0.6-0.7c-1-2.9-1.3-4.3-1.5-4.8c-0.2-0.5-0.1-0.2-0.1,0.3c0.1,1.1,0.4,3.2-0.7,0.9       c0,0-0.2-0.5-0.3-1c-0.2-0.5-0.3-1-0.3-1l0.1,1.3c0,0,0.2,0.5,0.3,1c0.2,0.5,0.4,1,0.4,1c-0.3-0.2-0.5,0.1-1.1-1.9       c0,0,0.1,0.7,0.3,1.4c0.2,0.7,0.4,1.4,0.4,1.4c0.4,3.2,0.6,4.8,0.5,5.7c-0.2,0.9-0.7,0.9-1.4,0.7c0.4,0.8,0.7,0.7,1.2,1.2       c0.6,0.5,1.2,1.8,3.2,5.1l-0.9-0.6c0,0,1.3,1.7,2.8,3.2c1.5,1.5,3.3,2.8,3.3,2.8s0.6,0.7,1.4,1.4c0.7,0.7,1.5,1.3,1.5,1.3       c2.8,1.5,4.7,2,7.6,3.1c0,0,0.3-0.1,0.5-0.2c0.3-0.1,0.5-0.2,0.5-0.2c3.2,1,6.7,1.4,10.3,1.4c3.5,0,7.2-0.4,10.8-1.3       c1.8-0.4,3.6-1.1,5.3-1.8c1.7-0.7,3.3-1.5,4.9-2.4c1.6-0.9,3.1-1.9,4.5-3c1.4-1.1,2.7-2.3,3.9-3.5c0.7-1.4,2.5-3.4,3.8-6.4       c0.7-1.5,1.3-3.3,1.4-5.5c0-0.3,0-0.5,0-0.8l0-0.7c0-0.5-0.1-1.1-0.2-1.7c-0.1-0.3-0.2-0.7-0.3-1.1L570,87       c-0.1-0.1-0.2-0.4-0.2-0.4c-0.1-0.2-0.2-0.4-0.4-0.6c-0.3-0.4-0.7-0.9-1.4-1.4c-0.3-0.2-0.7-0.4-1.2-0.5       c-0.2-0.1-0.4-0.1-0.6-0.1c-0.1,0-0.3,0-0.4,0l-0.1,0c0,0,0,0,0,0c0,0,0,0,0.2,0c0.2,0,0.4,0.1,0.6,0.1       c0.2,0.1,0.4,0.2,0.7,0.3c0.5,0.2,0.9,0.6,1.2,1c0.3,0.4,0.5,0.8,0.6,1.1c0.1,0.3,0.3,0.8,0.3,1.1c0,0.3,0.1,0.5,0.1,0.7       c0,0.4,0,0.6,0,0.6c0,0.6,0,1.2-0.1,1.8c-0.1,0.6-0.2,1.3-0.3,2c-0.3,1.4-0.8,2.8-1.5,4.2c-1.4,2.8-3.6,5.6-6.2,7.9       c-2.6,2.4-5.9,4.3-9.1,5.6c-1.6,0.7-3.3,1.3-4.9,1.7c-1.6,0.4-3.3,0.7-4.8,0.9l0.4-0.5c2.5-0.5,4.2-1.2,7.2-2.1l0.5-1       c-1.5-0.1-3.3,0.3-5.6,0.7c-2.2,0.4-4.7,0.9-7.3,1.1c-2.6,0.3-5.1,0.4-7.4,0.3c-2.2-0.1-4-0.5-5-0.9c-2.1-0.9-2.7-1.4-2.6-1.6       c0.1-0.1,1,0.1,2,0.3c2,0.4,4.6,0.8,2.5,0.3c2.4,0.3,3.1,0.1,2.8-0.1c-0.3-0.3-1.7-0.7-3.3-1.4c-1.6-0.7-3.5-1.7-5-2.9       c-1.5-1.1-2.6-2.4-3.1-3.1c-1-1.3-2.1-2.9-3.1-4.8c-1-1.9-2-4.2-2.7-6.7c-0.4-1.3-0.7-2.6-1.1-4c-0.2-0.7-0.3-1.4-0.4-2.1       l-0.2-1.1l-0.1-0.5l-0.2-1.1c-0.4-3.1-0.6-6.3-0.7-9.7c-0.1-3.4-0.2-6.9-0.3-10.3l-1.5,1.2c-0.6,0.5-1.2,1-1.7,1.5       c-1.1,1-2.2,1.9-3.3,2.9c-1.1,1-2.1,1.9-3.2,2.9c-1.1,1-2.1,2-3.2,3.1c-1,1.1-2,2.2-3,3.3c-0.7,0.8-1.3,1.6-1.9,2.4       c-1,1.2-1.9,2.4-2.8,3.5c-2,2.7-3.8,5.6-5.8,8.6c-2,2.9-4,6-6,9c-1,1.6-2,3.2-3,4.8c-0.5,0.8-0.9,1.5-1.4,2.1       c-0.2,0.3-0.5,0.6-0.7,0.9c-0.2,0.3-0.5,0.5-0.6,0.7c-0.4,0.4-0.7,0.6-1.1,0.7c-0.3,0.1-0.8,0.2-1.5,0.3       c-1.5,0.1-2.8,0-3.8-0.5c-1.2-0.5-2.3-1.2-2.8-1.9c-0.3-0.3-0.5-0.7-0.6-1c-0.1-0.3-0.1-0.2,0-1.3c0.1-0.8,0.1-1.6,0.2-2.4       c0.1-0.8,0.2-1.7,0.3-2.5c0.3-1.7,0.6-3.5,0.9-5.2c0.6-3.5,1.2-6.8,1.8-10.1c0.3-1.6,0.5-3.3,0.8-4.9c0.2-1.6,0.5-3.2,0.6-4.7       c0.4-2.9,0.6-6.3,0.8-9.8c0.1-1.7,0.1-3.5,0.2-5.3c0.1-1.8,0.2-3.5,0.3-5.2c0.1-0.9,0.1-1.7,0.2-2.6c0.1-0.9,0.1-1.7,0.2-2.4       c0.2-1.5,0.5-3,0.9-4.2c0.4-1.1,0.9-1.9,1.4-2.5c0.5-0.5,1.1-0.7,1.6-0.6c0,0,0.2-0.1,0.4-0.2c0.2-0.1,0.5-0.2,1.1-0.3       c0.6-0.1,1.5-0.1,2.5,0c1,0.1,1.8,0.3,1.9,0.4c0.1,0.1,0.2,0.2,0.2,0.4c0,0,0,0.1,0,0.1c0,0.2,0,0.3,0,0.5c0,0.4,0,0.9,0.1,1.2       c0,0.4,0,0.8,0,1.1c0,0.2,0,0.3,0,0.5c0,0.1,0,0.2,0,0.3c-0.1,0.7-0.1,1-0.1,1c0,0-0.1-0.1-0.2-0.2c0-0.2-0.1-0.3-0.1-0.4       c0-0.1-0.1-0.1-0.1-0.1l-0.1,0.6l0,0.2l-0.1,0.5l-0.1,1c-0.1,0.6-0.2,1.4-0.4,2.2c-0.3,1.6-0.6,3.2-0.9,4.8       c-0.7,3.3-1.3,6.6-2,9.9c-0.7,3.3-1.4,6.7-2.1,10c-0.3,1.7-0.6,3.4-1,5.1l-0.2,1.3l-0.2,1.4c-0.1,0.9-0.3,1.8-0.4,2.7       l-2.5,17.8l10.8-14.2c1.3-1.7,2.5-3.3,3.8-5c1.3-1.6,2.4-3.3,3.5-4.9c2.3-3.2,4.5-6.3,6.7-9.3c2.5-3.3,3.9-5.5,5.4-7.2       c1.4-1.7,2.5-2.9,4.2-3.8c1.4-1.3,2.9-2.6,4.5-3.7c1.5-1.1,3.1-2,4.8-2.7c1.6-0.6,3.3-1,5.2-1.1c0.9-0.1,1.8,0,2.1,0.1       c0.1,0,0.4,0.1,0.3,0.1c0.2-0.3,0.4-0.4,0.5-0.5l0,0l0,0c0.1-0.1-1.1,0.7-0.6,0.4l0,0c0,0,0.1,0.1,0,0c0,0,0,0,0,0l0,0       c0,0,0,0,0,0c0,0,0,0,0,0l0.1,0.3c0.1,0.4,0.1,0.8,0.2,1.2c0,0.5,0.1,1.2,0,1.6l-0.1,1.4c-0.2,2.3-0.4,4.5-0.6,6.7       c0,0.6-0.1,1.1-0.1,1.8c0,0.6-0.1,1.3-0.1,1.9c0,1.2,0.1,2.3,0.1,3.5c0.1,2.3,0.4,4.5,0.7,6.7c0.4-0.1,1.1,2.2,0.9-1       c-0.4-2.2-0.6-4.5-0.6-6.7c0-1.1,0-2.1,0.2-3.3c0.1-0.5,0.1-1.1,0.2-1.6c0.1-0.5,0.2-0.9,0.3-1.4c0.4-1.8,0.7-3.3,1.1-4.3       c0.4-1,0.7-1.7,0.9-1.7l-0.5,3.1c0,0,0.4-1.4,0.8-2.8c0.2-0.7,0.3-1.4,0.5-1.9c0.1-0.5,0.2-0.9,0.2-0.9s-0.1-0.9-0.2-1.8       c-0.1-0.4-0.1-0.9-0.2-1.2C523,52.2,523,52,523,52c0-0.9-0.1-1.4,0-1.5c-0.8-1.5-2.5-2.3-4-2.6c-1.6-0.3-3.1-0.4-4.7-0.4       c-1.6,0-3.2,0.2-4.8,0.6c-1.6,0.4-3.2,1-4.8,1.8c-2.1,1.5-4,3.2-6.1,5.2c-1.1,1-2,2.1-3.2,3.2       C494.4,59.4,493.2,60.6,491.9,61.9z"></path>

		</g>

			<path class="in" fill="" d="M426.6,116c-0.5,0-1-0.1-1.5-0.1c-6-1-10.1-5.5-9.1-11.3c1.4-8.5,2.5-17.4,3.6-25.9   c1.5-11.6,3-23.5,5.3-35.4c1.1-5.8,6.9-8.6,12.9-7.5c6,1.1,9.9,5.7,8.8,11.6c-2.2,11.2-3.7,22.8-5.1,34c-1.1,8.7-2.3,17.8-3.8,26.7   C436.8,113.4,432,116.1,426.6,116z"></path>
			<path  class="in" fill-rule="evenodd" clip-rule="evenodd" fill="" d="M434.7,5.1c-2.3-0.9-4.3-4-6.6-5.1c-0.6,0.8-3.2,0.9-2.5,2.3   c1.1-0.4,1.8,2.8,0.5,2.9c-1.2,0.3-1.6-0.3-1.6-1.5c-2.4,2.5-6,4.7-6.6,7.8c0.6-0.2,1.1,0.1,1.7,0.5c-0.6,0.8-0.2,2-1.3,2.7   c-0.6-0.7-0.7-1.4-0.8-2c-1.4,2.4-5.3,4.3-4.5,7.2c1.2-1.7,2-3.1,4.2-0.8l-2,1.7c0.8,2.2,3.3,0.9,2.7,2.3c-1.5,0.6-0.3,1.9-1.8,2.5   c-1.8-1.2-3.2-2.6-4.7-5.2c-3.2,3.7-6.3,7.6-8.7,11.7c2.1-0.6,2.2-2.6,2.9-3.2c0.6-0.5,1.5,0.2,2.1-0.2c-0.1,0.1,0-2.2,1.1-1.1   l0.4,2.6c-0.8,1.9-2.3-0.1-3.2,1.3c0.8,1.4-0.6,5.6-2.8,3.1c0.5-0.8,2.3-1.5,0.3-2.5c-1.3,1.2-0.5,2.5-2.2,3.7   c0.7,1.2,2.8,0.3,2.2,1.7c-0.4,0.5-1.3-0.4-1.7-0.1c3,2.9,1.4,5.5,0.8,8.2c1.8-0.9,5.4-0.9,5-3.1c1,1,1.5,0.3,2.3,0.5   c-0.2-1.6,3.1-3.9,1.4-3.8c-0.6,0-0.7,1.4-1.5,0.7c-0.2-1.1,1-1.8,2-1.7c1.1,0,2,0.7,1.3,2.1l1.6-1.8c-1.9-2.3-2.9-0.8-4.6-2.2   c-0.3-0.9,1.4-1.9,2.5-1.7c-1.4,2,0.2,0.4,1.4,2.6c0.6-2.5,3.4-2.1,3.5-4.6c-1.1,1-3.6,0.5-6.1,0.2c0-1.4,3-2.2,4.8-0.8   c0.7-0.9,0.5-2.5,2.2-1.2c-0.2,0.6-0.3,1.3-0.1,2c2.2-1,3.7-2.6,5.4-4.4c1.7-1.8,3.7-3.8,6.6-5.4c0.3-1,0.2-2.2,0.8-3   c2.1,0.1,2.5-2.6,2.9-3.5c0.3-0.8,1.6-1.4,1.7-1.8C436.6,12.2,434.9,8.4,434.7,5.1z M407.2,35.5c-1.7-1.8,1.7-4.1,3.3-2.5   C408.4,33.8,409,35.1,407.2,35.5z M411.5,29c-0.4,0.8,1.2,1.8-0.4,2.4c-2.7-2.3,0.5-4.9,2.3-4.2c0.6-0.6-4.3-2.8-1.7-4.1   c2.1,3.2,2.5,2.7,4.9,3.1C417,29.3,413.5,28,411.5,29z M426.4,14.2c-1.2,1.6-2.9-2.5-2.8-3.2C424.4,9.3,427,13.7,426.4,14.2z    M421.5,21.2c-1-0.8-1.8,1.5-2.9,0.5c-2-1.2,0.7-2,1.1-2.7c0.5-1,0.1-2.5,2.5-2.7C422.3,18.5,419.9,18.1,421.5,21.2z M423,16.5   c-0.2-1.1-0.7-2.2,0.4-2.9l1.6,2.3C424.4,16.7,423.7,16.3,423,16.5z M423.9,20.2c0.9-0.9,1.9-1.6,2.8,0.5   C425.8,21,424.9,21.7,423.9,20.2z M427.5,4.4c0.7-0.7,1.3,0,0.8,0.3c0.8,1.6,2.1-0.6,2.8,1.6C429.8,6.9,428.6,6.4,427.5,4.4z"></path>
	</g>
		</g>
</svg>