<svg width="200" height="200" viewBox="0 0 200 200" version="1.1" xmlns="http://www.w3.org/2000/svg">
  <g fill="currentColor" transform="matrix(1.380399, 0, 0, 1.380399, -11.977673, -13.581181)">
    <path
      d=" M8.686672,94.084656 C10.850096,70.086357 17.357716,48.184036 33.385612,30.139809 C45.705406,16.270170 61.346149,11.721411 79.411530,15.251925 C81.260231,15.613217 82.957603,15.941387 84.761375,15.209408 C90.959724,12.694098 97.202400,13.732347 103.388779,15.196306 C109.666443,16.681866 114.070900,20.478094 116.243645,26.608006 C117.077217,28.959726 117.911346,30.726786 120.979340,30.701054 C132.999557,30.600237 138.859116,40.532650 141.184814,48.920799 C141.930740,51.611160 142.148315,54.505932 142.200333,57.314720 C142.253891,60.208027 143.191895,62.496731 145.399338,64.295319 C154.138992,71.416275 155.432571,80.276749 151.312027,90.275162 C150.404037,92.478424 150.419464,94.428535 151.413834,96.481873 C153.921692,101.660484 153.791763,107.247810 153.174332,112.658997 C152.500198,118.567261 149.329086,123.307327 143.661850,125.780731 C141.382629,126.775475 139.872528,128.164963 138.684814,130.331223 C127.050293,151.551193 103.348991,157.089584 83.143929,143.391724 C82.886322,143.217072 82.521538,143.200531 82.535515,143.204544 C66.403481,153.794632 50.208580,151.499878 34.693321,143.247559 C15.482771,133.029800 8.376302,115.594254 8.686672,94.084656 M85.283478,118.499062 C85.292419,122.998070 85.297279,127.497086 85.311272,131.996078 C85.331932,138.642517 87.392555,142.251389 93.883286,143.470200 C112.661102,146.996262 126.531502,144.866898 134.758987,126.385704 C135.732254,124.199493 136.956482,122.227829 139.558533,121.718323 C144.247833,120.800117 146.405502,117.495483 147.838547,113.303642 C149.760239,107.682487 148.399338,102.419090 146.162735,97.341537 C144.699905,94.020569 144.727402,91.266068 146.478439,87.942802 C150.390076,80.518974 149.227722,75.403450 142.928589,69.743706 C138.737198,65.977745 136.545029,61.578220 136.580917,55.739342 C136.653748,43.890850 129.236420,36.252480 117.239449,35.403324 C114.815773,35.231773 113.311394,34.546242 112.302475,32.139824 C107.824440,21.459036 104.242462,19.228928 92.539070,19.375521 C86.052322,19.456770 85.295052,20.186031 85.293259,26.519592 C85.284676,56.846210 85.286263,87.172829 85.283478,118.499062 M55.980541,144.547318 C61.474609,144.795120 66.996590,145.100098 72.192734,142.807953 C76.275757,141.006836 79.732475,138.804062 79.705162,133.423019 C79.590225,110.775269 79.660019,88.126595 79.625656,65.478317 C79.623672,64.173424 79.646538,62.674679 79.049843,61.605450 C77.861748,59.476475 60.575089,59.731052 59.655632,61.965446 C57.003136,68.411346 51.964821,73.175018 48.186035,78.814186 C46.311050,81.612267 46.182442,83.671127 48.186592,86.395546 C51.335926,90.676712 54.235897,95.156174 57.008202,99.694168 C58.621384,102.334793 60.416203,104.054688 63.761711,103.715111 C65.350029,103.553894 67.468460,103.456932 67.467705,105.885345 C67.466873,108.574440 65.160477,108.533028 63.429165,108.300346 C59.705761,107.799911 57.573246,109.749046 55.641495,112.477509 C53.721115,115.189926 51.671902,117.818382 49.556114,120.382095 C48.523315,121.633553 47.061302,122.231926 45.611664,121.009506 C44.186359,119.807617 45.220772,118.472458 45.899086,117.448792 C47.735779,114.676956 49.594852,111.890358 51.744175,109.364113 C53.657524,107.115211 53.913715,105.153931 52.245918,102.667641 C49.002892,97.833069 45.931892,92.882889 42.803558,87.971725 C41.752308,86.321365 40.417091,85.381653 38.324406,85.343498 C31.323353,85.215836 24.349817,85.461143 17.394848,86.302193 C15.714067,86.505447 14.540916,87.071335 14.405410,88.958969 C13.313818,104.165215 15.014189,118.504852 26.152809,130.311691 C34.080338,138.714813 43.826519,143.035706 55.980541,144.547318 M25.573326,80.665604 C34.611233,81.376022 42.373291,80.828636 47.946423,71.297493 C51.845818,64.628769 54.735512,59.606071 48.460373,53.363907 C48.011555,52.917454 47.838467,52.197834 47.522076,51.613400 C46.855938,50.382927 46.269505,48.983307 47.753651,48.110989 C48.916553,47.427486 50.385986,47.513779 51.386284,48.728058 C52.442886,50.010696 53.544613,51.288898 54.379864,52.713692 C55.726318,55.010513 57.548653,56.017056 60.186520,55.509583 C64.961937,54.590881 69.810303,54.534901 74.623428,54.746471 C78.654335,54.923660 79.814331,53.240696 79.712944,49.436260 C79.504555,41.615833 79.409523,33.776005 79.737396,25.963871 C79.930672,21.358841 77.877121,19.605078 73.733498,19.408945 C60.318916,18.773991 48.444992,22.273329 38.805561,32.132812 C27.517220,43.678848 21.229757,57.799564 17.311052,73.171944 C16.717533,75.500206 15.557716,77.828445 16.693180,80.667648 C19.330030,80.667648 21.972897,80.667648 25.573326,80.665604 z" />
    <path
      d=" M115.351822,95.546394 C117.512276,95.241646 119.307831,94.973000 121.058952,94.529083 C122.718506,94.108383 124.459061,93.477364 125.250679,95.643547 C126.031303,97.779617 124.305023,98.515358 122.793930,99.260689 C113.581551,103.804688 102.849709,97.972755 101.729897,87.760201 C101.514145,85.792618 101.611870,83.790024 101.577980,81.803352 C101.552254,80.295227 101.388184,78.547020 103.558487,78.536125 C105.307526,78.527351 106.091225,79.748894 106.312241,81.456055 C106.565430,83.411751 106.906982,85.363876 107.348831,87.285660 C108.308769,91.460800 110.545128,94.511581 115.351822,95.546394 z" />
    <path
      d=" M117.333015,59.130798 C117.312729,60.727093 117.329445,61.894073 117.250595,63.054558 C117.164589,64.320229 116.630058,65.375847 115.242882,65.507454 C113.573021,65.665878 112.839134,64.621696 112.740234,63.090916 C112.565834,60.391422 111.779594,57.849995 110.596619,55.462307 C108.346268,50.920250 104.382256,49.068504 99.596321,49.950260 C97.633934,50.311810 94.808220,51.769333 94.044106,48.856518 C93.189034,45.596947 96.580017,45.383343 98.616798,44.847351 C108.335266,42.289886 115.626724,47.767784 117.333015,59.130798 z" />
    <path
      d=" M110.610115,130.194626 C109.890266,131.764282 109.473648,133.080643 108.677414,134.100662 C107.809578,135.212418 106.776581,136.752625 104.995163,135.659286 C103.298668,134.618073 103.999039,133.176666 104.549835,131.698700 C107.009720,125.098129 105.755333,122.445747 99.155403,119.020279 C97.159676,117.984467 92.981712,117.666451 94.305336,114.607269 C95.904259,110.911789 99.288963,113.716042 101.640808,114.732574 C109.418365,118.094254 111.871643,122.356911 110.610115,130.194626 z" />
  </g>
</svg>