<svg width="200" height="200" viewBox="0 0 200 200" version="1.1" xmlns="http://www.w3.org/2000/svg">
  <g fill="currentColor" transform="matrix(1.004165, 0, 0, 1.004165, -6.186793, 0.666114)">
    <path
      d="M 6.803 125.923 C 5.718 122.852 5.99 120.237 7.765 117.997 C 29.123 91.034 55.308 71.428 90.069 65.86 C 121.13 60.885 148.516 70.706 173.461 88.597 C 185.173 96.997 195.187 107.156 203.536 118.983 C 205.987 122.454 205.895 125.23 203.469 128.441 C 181.528 157.487 153.214 176.425 116.726 180.996 C 93.463 183.911 71.342 178.59 51.079 166.694 C 33.531 156.393 18.068 143.659 6.803 125.923 M 156.959 160.455 C 171.483 152.503 183.456 141.544 194.234 129.114 C 196.917 126.02 196.887 121.72 194.238 118.501 C 186.568 109.178 178.057 100.79 168.295 93.711 C 143.097 75.44 115.353 67.464 84.455 74.262 C 56.226 80.473 34.551 96.997 16.648 119.063 C 14.208 122.069 15.797 126.284 17.686 128.547 C 25.83 138.302 34.744 147.274 45.229 154.516 C 63.022 166.803 82.617 174.113 104.377 174.619 C 122.964 175.052 140.191 169.902 156.959 160.455 Z" />
    <path
      d="M 116.088 43.798 C 117.324 36.05 118.448 28.687 119.827 21.371 C 120.259 19.074 120.481 15.698 123.854 16.097 C 127.406 16.516 125.952 19.438 125.65 22.311 C 124.887 29.567 123.709 36.744 122.447 43.92 C 122.084 45.981 122.161 47.364 120.047 47.576 C 117.652 47.817 116.287 46.636 116.088 43.798 Z" />
    <path
      d="M 163.173 36.836 C 165.48 35.255 167.328 35.631 168.73 37.424 C 170.171 39.265 168.64 40.162 167.272 41.871 C 163.244 46.903 159.259 51.972 155.148 56.936 C 153.603 58.801 152.485 61.335 150.132 59.573 C 147.473 57.583 148.707 55.061 150.269 53.021 C 154.39 47.64 158.659 42.373 163.173 36.836 Z" />
    <path
      d="M 78.826 19.149 C 79.931 19.591 81.029 19.816 81.307 20.418 C 84.723 27.835 86.767 35.686 88.23 43.685 C 88.528 45.316 87.463 46.55 85.835 47.036 C 84.036 47.574 83.396 47.167 82.59 45.407 C 79.246 38.113 77.626 30.282 75.904 22.516 C 75.447 20.457 76.427 19.405 78.826 19.149 Z" />
    <path
      d="M 36.755 41.808 C 39.097 40.079 40.86 40.827 42.273 42.488 C 46.248 47.161 50.158 51.89 54.043 56.638 C 55.678 58.637 56.287 60.957 54.176 62.867 C 51.86 64.962 50.895 62.504 49.276 60.551 C 45.677 56.209 42.07 51.874 38.534 47.48 C 37.024 45.604 34.962 44.545 36.755 41.808 Z" />
    <path
      d="M 66.957 127.572 C 65.868 107.998 75.618 92.645 93.316 87.041 C 113.775 80.562 138.994 91.766 144.317 116.638 C 148.88 137.952 134.815 159.674 113.297 163.113 C 91.233 166.64 70.348 153.07 67.542 130.458 C 67.44 129.635 67.204 128.829 66.957 127.572 M 74.348 132.018 C 75.269 134.147 76.064 137.343 77.132 139.395 C 83.584 151.787 98.411 158.481 111.828 156.535 C 124.969 154.63 135.989 143.703 138.437 130.151 C 140.638 117.971 133.96 103.691 121.69 97.268 C 110.164 91.235 97.519 89.965 86.88 98.105 C 76.402 106.123 71.596 118.222 74.348 132.018 Z" />
    <path
      d="M 122.802 123.806 C 123.28 133.695 116.699 141.095 106.426 141.166 C 96.988 141.231 89.834 133.713 89.647 124.3 C 89.463 115.056 96.42 108.575 105.85 108.249 C 115.306 107.921 122.419 113.263 122.802 123.806 Z"
    />
  </g>
</svg>