<svg width="200" height="200" viewBox="0 0 200 200" version="1.1" xmlns="http://www.w3.org/2000/svg">
  <g fill="currentColor" transform="matrix(1.324603, 0, 0, 1.324603, -8.909921, -5.038525)">
    <path
      d=" M128.856277,133.328262 C130.126297,139.427963 131.279724,145.114517 132.358734,150.815140 C132.599014,152.084503 132.974670,153.673126 131.099487,154.049652 C129.724564,154.325714 128.912796,153.359863 128.684830,152.077774 C126.581703,140.249695 121.626839,128.752518 124.617439,116.331413 C125.733147,111.697433 128.107056,107.785156 130.855011,103.957680 C143.496674,86.349846 148.432907,67.014053 143.823883,45.520927 C139.933960,27.381075 128.401611,16.020954 111.203850,11.201065 C89.977821,5.252210 69.242615,6.262319 51.416161,21.439133 C40.691936,30.569353 35.053551,42.345753 35.439323,56.547791 C35.587711,62.010677 34.217770,66.562622 30.965809,70.911362 C27.381681,75.704292 24.181925,80.795372 20.986311,85.864738 C18.383732,89.993332 19.362410,91.968376 24.030201,92.599312 C33.353878,93.859581 33.478458,93.861954 33.293755,103.548370 C33.201069,108.408905 33.746239,113.180862 34.416821,117.948853 C35.411720,125.022789 40.411453,129.173584 48.434834,129.586136 C52.257854,129.782715 56.097710,129.655090 59.929962,129.668182 C63.058208,129.678864 65.171700,131.060822 65.246986,134.323578 C65.385300,140.317673 65.297112,146.317581 65.258087,152.314758 C65.250046,153.551483 64.802528,154.591644 63.059624,154.792435 C60.506500,152.243225 61.753986,148.919449 61.711952,145.978897 C61.553143,134.869232 61.646515,134.867905 50.706226,134.178070 C36.168938,133.261398 29.793633,126.511444 29.658232,111.869186 C29.627417,108.536942 29.420773,105.184402 29.707293,101.876923 C30.035492,98.088303 28.060635,96.808746 24.817089,96.490364 C23.657436,96.376534 22.468695,96.435448 21.334202,96.209656 C15.569162,95.062271 13.219277,90.533119 16.237888,85.512161 C20.180204,78.954796 24.560806,72.657516 28.846943,66.311890 C30.670750,63.611748 31.999741,60.845398 31.652588,57.486416 C29.188622,33.645538 49.145729,11.346079 71.386192,6.290740 C94.179970,1.109630 115.394730,3.396104 133.706299,19.146444 C144.287704,28.247829 148.568451,40.449131 149.360992,54.109600 C150.524506,74.164185 145.488998,92.255806 133.084106,108.292366 C127.452484,115.572716 126.638229,124.081848 128.856277,133.328262 z" />
    <path
      d=" M73.970383,75.967590 C77.499931,70.896011 80.482719,65.980087 80.780365,59.325123 C77.698685,59.325123 74.903137,59.395206 72.112526,59.307598 C68.527672,59.195057 67.387184,57.272118 69.574974,54.485325 C76.046425,46.242004 82.724205,38.158363 89.430038,30.102800 C91.366623,27.776426 93.669777,28.355652 95.416862,30.421858 C101.866219,38.049278 108.201981,45.775688 113.848709,54.028194 C115.953735,57.104614 115.090218,59.531937 111.291481,59.199242 C105.642860,58.704533 104.909119,61.813080 104.243332,66.266342 C102.228714,79.741287 96.443161,91.276260 85.312447,99.607819 C83.892761,100.670502 81.973000,103.642761 79.991753,100.719818 C78.340347,98.283485 81.250603,97.406250 82.711113,96.298904 C93.594818,88.047043 98.934708,76.677010 100.514786,63.511768 C101.110268,58.550201 101.150261,54.204857 109.130936,55.945316 C104.163200,46.923889 98.234657,40.411564 92.194885,33.253292 C86.289925,40.747211 79.930412,47.184715 74.868050,54.925266 C77.423714,56.206966 79.776871,55.519367 82.032867,55.625591 C84.737160,55.752930 86.124763,56.670105 85.459610,59.625729 C82.357407,73.410347 75.969765,84.798965 62.527493,90.985245 C60.854885,91.754990 58.453568,93.595177 57.246651,91.206383 C55.916904,88.574493 58.916821,88.256058 60.606899,87.434723 C65.949837,84.838196 70.405807,81.188332 73.970383,75.967590 z" />
  </g>
</svg>