<svg width="200" height="200" viewBox="0 0 200 200" version="1.1" xmlns="http://www.w3.org/2000/svg">
  <g fill="currentColor" transform="matrix(1.307104, 0, 0, 1.307104, -30.703867, -30.690815)">
    <path
      d="m176.5,144.33q0,2.93 -1.09,7.66q-1.09,4.73 -2.28,7.44q-2.28,5.43 -13.26,11.52q-10.21,5.54 -20.21,5.54q-2.93,0 -5.7,-0.38q-2.77,-0.38 -6.25,-1.36q-3.48,-0.98 -5.16,-1.58q-1.68,-0.6 -6.03,-2.23q-4.35,-1.63 -5.32,-1.96q-10.65,-3.8 -19.02,-9.02q-13.91,-8.58 -28.74,-23.42q-14.83,-14.83 -23.42,-28.74q-5.22,-8.37 -9.02,-19.02q-0.33,-0.98 -1.96,-5.32q-1.63,-4.35 -2.23,-6.03q-0.6,-1.68 -1.58,-5.16q-0.98,-3.48 -1.36,-6.25q-0.38,-2.77 -0.38,-5.7q0,-10 5.54,-20.21q6.09,-10.98 11.52,-13.26q2.72,-1.2 7.44,-2.28q4.73,-1.09 7.66,-1.09q1.52,0 2.28,0.33q1.96,0.65 5.76,8.26q1.2,2.06 3.26,5.87q2.06,3.8 3.8,6.9q1.74,3.1 3.37,5.81q0.33,0.43 1.9,2.72q1.58,2.28 2.34,3.86q0.76,1.58 0.76,3.1q0,2.17 -3.1,5.43q-3.1,3.26 -6.74,5.98q-3.64,2.72 -6.74,5.76q-3.1,3.04 -3.1,5q0,0.98 0.54,2.44q0.54,1.47 0.92,2.23q0.38,0.76 1.52,2.61q1.14,1.85 1.25,2.06q8.26,14.89 18.91,25.54q10.65,10.65 25.54,18.91q0.22,0.11 2.06,1.25q1.85,1.14 2.61,1.52q0.76,0.38 2.23,0.92q1.47,0.54 2.44,0.54q1.96,0 5,-3.1q3.04,-3.1 5.76,-6.74q2.72,-3.64 5.98,-6.74q3.26,-3.1 5.43,-3.1q1.52,0 3.1,0.76q1.58,0.76 3.86,2.34q2.28,1.58 2.72,1.9q2.72,1.63 5.81,3.37q3.1,1.74 6.9,3.8q3.8,2.06 5.87,3.26q7.61,3.8 8.26,5.76q0.33,0.76 0.33,2.28z" />
  </g>
</svg>