<svg width="200" height="200" viewBox="0 0 200 200" version="1.1" xmlns="http://www.w3.org/2000/svg">
    <g fill="currentColor" transform="matrix(1.680672, 0, 0, 1.680672, 19.327747, 0.000014)">
        <path
            d="M12.6039 119C11.0141 119 9.43984 118.687 7.97108 118.08C6.50231 117.472 5.16781 116.581 4.04381 115.459C2.9198 114.336 2.02831 113.003 1.42026 111.536C0.812205 110.069 0.499498 108.497 0.500001 106.91V12.0892C0.499518 9.89822 1.09546 7.74832 2.22408 5.86942C3.3527 3.99053 4.97156 2.45332 6.90752 1.42219C8.84347 0.391058 11.0237 -0.0952 13.215 0.0154168C15.4064 0.126034 17.5264 0.829365 19.3483 2.05019L90.1395 49.4604C91.7893 50.5661 93.1413 52.0602 94.0762 53.811C95.011 55.5617 95.5 57.5153 95.5 59.4994C95.5 61.4835 95.011 63.4371 94.0762 65.1879C93.1413 66.9386 91.7893 68.4328 90.1395 69.5384L19.3483 116.949C17.3547 118.287 15.0064 119.002 12.6039 119ZM12.6231 9.54124C12.2003 9.5461 11.7848 9.65082 11.4104 9.84684C10.9998 10.0592 10.6565 10.3814 10.4187 10.7774C10.1809 11.1734 10.0581 11.6275 10.0638 12.0892V106.91C10.0633 107.37 10.1882 107.821 10.4249 108.216C10.6616 108.61 11.0013 108.933 11.4077 109.15C11.814 109.366 12.2717 109.469 12.7318 109.445C13.1918 109.422 13.6369 109.275 14.0194 109.018L84.8144 61.6081C85.1624 61.3765 85.4474 61.0623 85.6437 60.6935C85.84 60.3248 85.9415 59.9132 85.9391 59.4956C85.9445 59.0791 85.8441 58.668 85.6475 58.3006C85.4508 57.9332 85.1642 57.6215 84.8144 57.3946L14.0194 9.98055C13.6087 9.6973 13.1221 9.54421 12.6231 9.54124Z"
        />
    </g>
</svg>