<svg width="200" height="200" viewBox="0 0 200 200" version="1.1" xmlns="http://www.w3.org/2000/svg">
  <g fill="currentColor" transform="matrix(1.486054, 0, 0, 1.491238, -20.285217, -19.737673)">
    <path
      d=" M14.673395,91.943558 C8.284968,54.780636 32.744045,24.630524 62.219948,15.885823 C99.331787,4.875747 142.039444,29.139835 147.613266,70.727859 C152.712448,108.774368 125.780418,140.562317 91.205803,146.488876 C58.042454,152.173553 21.174032,129.320038 14.673395,91.943558 M106.182114,137.701920 C137.527695,122.612114 149.394470,93.565712 141.819977,63.415554 C133.600174,30.696770 99.408302,10.913217 65.936707,19.501652 C21.944561,30.789541 5.836712,78.526863 27.534122,113.708595 C42.880322,138.592010 75.307396,150.283493 106.182114,137.701920 z" />
    <path
      d=" M94.304893,65.294693 C96.090889,63.531548 97.585281,61.967346 99.182999,60.516956 C100.230659,59.565895 101.419197,57.966682 102.910370,59.641266 C104.178551,61.065437 103.132347,62.453781 102.054497,63.561413 C99.041809,66.657372 96.099510,69.835236 92.915306,72.746597 C90.424889,75.023621 89.215698,77.471115 89.246529,80.972275 C89.297981,86.813911 86.076553,89.492935 79.988472,89.388977 C74.644760,89.297729 71.607231,86.056892 71.621750,80.462265 C71.636505,74.774406 75.362129,70.017075 80.308739,71.524376 C87.383362,73.680138 90.280785,69.302551 94.304893,65.294693 M83.627007,84.219276 C85.902695,81.776833 86.236275,79.289375 83.648964,76.873306 C81.703407,75.056526 79.506462,74.756340 77.409889,76.547089 C75.475166,78.199600 74.633133,80.400642 75.974686,82.742348 C77.612251,85.600739 80.031921,86.508736 83.627007,84.219276 z" />
    <path
      d=" M121.967545,47.420677 C125.562767,49.187977 123.232735,50.730438 121.958450,51.958790 C120.383286,53.477158 119.021591,55.966694 116.200005,54.846539 C114.812057,54.295525 114.901939,52.946873 115.885460,51.993023 C117.644821,50.286724 119.066605,48.123848 121.967545,47.420677 z" />
    <path
      d=" M38.676659,51.189400 C37.397049,48.660828 37.814877,46.737099 40.481403,47.941906 C42.975510,49.068810 45.633442,50.978783 45.535034,54.791016 C41.997944,55.998306 40.780170,53.040779 38.676659,51.189400 z" />
    <path
      d=" M32.944588,77.718781 C35.036842,77.863556 37.154942,77.760269 36.914753,80.135971 C36.658611,82.669456 34.333176,82.277756 32.576420,82.277206 C30.822166,82.276657 28.330221,82.715401 28.133125,80.280945 C27.888725,77.262192 30.630833,77.919739 32.944588,77.718781 z" />
    <path
      d=" M131.667908,82.188416 C131.070541,82.265564 130.903595,82.294449 130.740250,82.280746 C128.843018,82.121719 126.681831,82.955482 125.273048,80.923759 C124.735413,80.148399 124.871887,79.240791 125.538475,78.676521 C127.388351,77.110588 129.735138,77.397163 131.701584,77.921234 C134.755951,78.735260 135.036880,80.422737 131.667908,82.188416 z" />
    <path
      d=" M65.557266,38.482513 C64.787933,37.383286 64.009949,36.529587 63.968704,35.641666 C63.880116,33.734367 61.900818,31.372650 64.709076,30.006901 C65.890976,29.432106 66.997520,30.426535 67.203949,31.680300 C67.610023,34.146561 70.543533,37.178894 65.557266,38.482513 z" />
    <path
      d=" M96.991119,30.271473 C99.794029,32.115562 99.889488,37.329567 97.406815,38.668053 C95.691124,39.593029 94.922424,38.509445 94.809631,36.950809 C94.638580,34.587025 95.208664,32.379776 96.991119,30.271473 z" />
  </g>
</svg>