<svg width="200" height="200" viewBox="0 0 200 200" version="1.1" xmlns="http://www.w3.org/2000/svg">
  <g fill="currentColor" transform="matrix(1.400931, 0, 0, 1.400931, -14.336946, -13.281354)">
    <path
      d=" M15.797859,102.877083 C3.713721,61.667137 26.680723,20.960541 67.282600,11.182996 C78.855232,8.396130 90.350166,9.150520 101.705803,12.569843 C103.601456,13.140648 105.974480,13.462136 105.942802,15.998636 C105.912537,18.422588 103.425514,18.328787 101.803268,18.866230 C79.651001,26.205214 65.325127,45.425735 66.515427,68.269478 C67.523705,87.619896 76.897095,102.680504 94.596031,111.134689 C111.591820,119.253014 128.200653,117.150078 143.557999,106.124031 C145.424042,104.784271 147.378525,102.359940 149.613190,104.267235 C151.579346,105.945343 150.320099,108.643517 149.380020,110.771194 C140.972458,129.800095 126.078743,141.835205 106.825317,148.181290 C67.494034,161.145218 29.827660,142.281891 15.797859,102.877083 M79.089005,107.434753 C54.766880,86.589310 50.919350,39.175983 91.119911,16.281590 C65.492012,10.761806 33.113064,27.074112 22.217678,57.612976 C10.684022,89.940872 24.461185,125.584465 54.300373,139.958160 C84.921944,154.708725 123.067978,143.877792 140.076782,115.577042 C118.388031,124.997307 98.096123,123.578705 79.089005,107.434753 z" />
    <path
      d=" M118.180893,51.436684 C122.765450,45.973320 127.102676,40.796227 132.502563,34.350708 C127.575111,34.350708 124.176338,34.370407 120.777946,34.342518 C119.040588,34.328262 117.227951,34.068295 117.033928,31.933474 C116.794205,29.295786 119.018112,29.769176 120.540161,29.662441 C125.675522,29.302320 130.817322,29.031235 135.958099,28.752605 C137.687683,28.658861 139.412033,28.925646 140.311447,30.571552 C141.291595,32.365196 139.985687,33.724102 138.961578,35.009739 C135.155746,39.787457 131.314362,44.536839 127.050461,49.838833 C131.112640,51.039074 134.578766,50.496605 137.963089,50.697315 C140.041611,50.820583 142.242371,51.010643 142.078201,53.811985 C141.931900,56.308262 139.828995,56.337719 137.963348,56.342922 C132.310425,56.358692 126.656075,56.402035 121.004875,56.296078 C118.000313,56.239750 115.884819,55.307171 118.180893,51.436684 z" />
    <path
      d=" M99.126282,82.367950 C97.814796,82.367989 96.982239,82.400230 96.153717,82.356323 C94.693115,82.278954 93.017075,82.588364 92.213966,80.901413 C91.388405,79.167328 92.775047,78.151833 93.705467,77.027718 C97.176285,72.834328 100.653572,68.646278 105.085609,63.302029 C100.945847,63.302029 98.050438,63.327400 95.155746,63.292328 C93.471703,63.271923 92.081589,62.570835 92.178879,60.719116 C92.264435,59.090710 93.706070,58.763569 95.120293,58.693764 C99.924911,58.456600 104.740288,57.898083 109.529991,58.068420 C113.371582,58.205036 114.074127,60.255947 111.663994,63.272560 C108.086357,67.750450 104.401016,72.142273 99.820473,77.715790 C104.484428,77.715790 107.736870,77.676949 110.987701,77.732330 C112.591141,77.759644 114.092476,78.210587 113.967468,80.229370 C113.861427,81.941734 112.458214,82.265701 111.070107,82.288185 C107.249672,82.350113 103.428139,82.344658 99.126282,82.367950 z" />
  </g>
</svg>