<svg width="200" height="200" viewBox="0 0 200 200" version="1.1" xmlns="http://www.w3.org/2000/svg">
    <g fill="#F7AB1E" transform="matrix(12.116884, 0, 0, 12.499996, -11.341833, -6.258578)">
        <path
            d="M10.086 1.0624C9.89853 0.708236 9.59645 0.520736 9.17978 0.499903C8.78395 0.520736 8.48187 0.708236 8.27354 1.0624L6.27354 5.1874L1.77354 5.8749C1.3777 5.9374 1.11729 6.15615 0.992285 6.53115C0.867285 6.92699 0.950619 7.27074 1.24229 7.5624L4.49229 10.7812L3.71104 15.3437C3.66937 15.7395 3.80479 16.0624 4.11729 16.3124C4.45062 16.5416 4.80479 16.5624 5.17979 16.3749L9.17978 14.2499L13.211 16.3749C13.5652 16.5624 13.909 16.5416 14.2423 16.3124C14.5756 16.0624 14.711 15.7395 14.6485 15.3437L13.8985 10.7812L17.1485 7.5624C17.4194 7.27074 17.5027 6.92699 17.3985 6.53115C17.2527 6.15615 16.9819 5.9374 16.586 5.8749L12.086 5.1874L10.086 1.0624Z"
        />
    </g>
</svg>