<svg width="200" height="200" viewBox="0 0 200 200" version="1.1" xmlns="http://www.w3.org/2000/svg">
  <g fill="currentColor" transform="matrix(1.312255, 0, 0, 1.312255, -0.412437, -5.875261)">
    <path
      d=" M59.378983,138.785446 C59.659447,143.891556 59.965740,148.541183 60.174305,153.195206 C60.250160,154.887939 60.142582,156.907990 57.883526,156.886490 C55.581745,156.864578 55.704628,154.767593 55.685055,153.125412 C55.633438,148.795273 55.454826,144.452576 55.706924,140.137085 C55.929386,136.328949 54.369072,134.990906 50.746719,135.356445 C49.098507,135.522766 47.418350,135.378082 45.752750,135.365616 C31.702839,135.260452 24.984926,128.632248 24.655825,114.573143 C24.558510,110.415825 24.361300,106.259933 24.325909,102.102402 C24.303322,99.448891 23.341675,98.219727 20.467133,98.256302 C18.535959,98.280876 16.500582,97.720825 14.675789,97.004593 C10.101236,95.209114 8.697227,91.755035 11.260313,87.498337 C15.376030,80.663063 19.810101,74.009781 24.335821,67.435295 C26.485327,64.312721 28.069132,61.228886 27.665150,57.308155 C24.864941,30.131340 48.913982,9.072275 72.612900,5.653609 C88.433800,3.371379 103.867661,3.787479 117.928070,12.569233 C132.387146,21.599976 140.381500,34.733597 142.406662,51.697826 C144.909805,72.665710 140.132019,91.507713 127.239212,108.374977 C120.313263,117.435989 121.804550,127.814728 123.740669,138.090103 C124.629890,142.809357 125.548203,147.523392 126.394318,152.250351 C126.606728,153.437042 126.519211,154.715042 124.995415,154.985611 C123.839973,155.190765 123.037621,154.413666 122.843811,153.353317 C120.654228,141.373596 115.761444,129.697113 118.657143,117.136414 C119.835732,112.024048 122.489906,107.680122 125.401939,103.348068 C140.562561,80.794472 144.253036,56.898396 131.089615,32.370823 C123.019981,17.334578 109.062149,10.251387 92.090088,9.280411 C79.105484,8.537558 66.441521,9.702448 54.953457,16.516920 C39.793587,25.509436 30.919497,38.425686 31.467157,56.521385 C31.656641,62.782169 29.725714,67.738052 26.069399,72.579079 C22.367428,77.480530 19.203814,82.790604 15.841993,87.946213 C13.745687,91.161064 14.263269,93.132706 18.439533,93.673088 C28.333403,94.953300 28.441736,95.011360 28.291245,104.922905 C28.217396,109.786743 28.843866,114.561363 29.435234,119.341278 C30.250172,125.928329 34.698353,130.096970 41.418144,130.615005 C44.896465,130.883163 48.407455,130.725174 51.903629,130.764709 C58.379108,130.837936 59.230991,131.703262 59.378983,138.785446 z" />
    <path
      d=" M54.332726,71.991119 C48.726143,67.995438 45.913910,62.938755 46.847656,56.378197 C47.819538,49.549728 52.023594,45.294121 58.644627,43.748928 C62.123634,42.937012 62.766102,40.377861 63.676540,37.679543 C68.181091,24.329113 82.085747,19.127563 93.825760,26.361794 C94.250458,26.623487 94.809929,26.794409 95.072937,27.170870 C97.886711,31.198416 102.666283,31.778164 106.465897,34.011608 C114.738373,38.874249 120.933952,46.732967 123.880325,55.593544 C127.141838,65.401825 118.862846,73.895363 107.435638,74.319878 C102.615730,74.498924 97.765778,74.622292 92.963425,74.286072 C88.996979,74.008377 87.085007,75.582886 86.533943,79.325584 C86.365402,80.470261 86.141289,81.626419 85.764091,82.715485 C85.339394,83.941727 84.919785,85.481750 83.092400,84.942719 C81.364204,84.432968 81.642349,82.835030 81.817017,81.593353 C82.113670,79.484467 82.676910,77.413094 83.330460,74.389931 C76.835289,74.389931 70.783142,74.308617 64.734596,74.420731 C61.164188,74.486916 57.777412,74.048210 54.332726,71.991119 M118.252319,64.684708 C121.780006,58.001381 120.674538,53.131290 114.522903,49.504971 C112.775742,48.475037 112.016739,47.301407 111.447807,45.381855 C109.814491,39.871078 105.820847,36.885780 100.021301,36.788906 C97.908592,36.753616 96.633072,36.129917 95.538170,34.395920 C92.070335,28.903929 86.949120,26.556618 80.628036,27.674969 C73.357384,28.961319 68.496048,33.843964 67.394707,40.810760 C66.803246,44.552135 65.397285,46.675735 61.371769,47.494869 C53.984467,48.998081 50.617977,53.545448 51.275951,60.043217 C51.857719,65.788399 56.693550,69.811012 63.657852,69.873161 C77.813591,69.999474 91.971275,69.891518 106.127846,69.952103 C110.699150,69.971657 114.628922,68.624634 118.252319,64.684708 z" />
    <path
      d=" M68.346573,83.099548 C67.743591,86.375526 67.152107,89.285645 66.479446,92.176865 C66.191429,93.414841 65.508202,94.339211 64.016319,93.935501 C62.779541,93.600830 62.710361,92.493797 62.741833,91.525978 C62.845108,88.349579 63.468975,85.221626 64.902901,82.410660 C65.943344,80.371063 67.391502,80.323166 68.346573,83.099548 z" />
    <path
      d=" M99.705177,93.191315 C99.295273,89.658371 100.339188,86.690399 101.310234,83.724365 C101.657448,82.663834 102.068527,81.308815 103.578995,81.573471 C105.286705,81.872688 105.475510,83.360657 105.214134,84.684021 C104.672874,87.424599 104.034370,90.158905 103.211731,92.826675 C102.608315,94.783546 101.297302,94.868179 99.705177,93.191315 z" />
    <path
      d=" M83.282043,98.969429 C82.639267,101.956688 82.002007,104.515419 81.365288,107.074280 C81.110863,108.096786 80.674034,109.032791 79.444267,108.925903 C78.268250,108.823685 77.813934,107.897087 77.751366,106.833061 C77.553108,103.461449 78.131989,100.062935 79.830887,97.296684 C81.572464,94.460930 82.964157,95.744942 83.282043,98.969429 z" />
  </g>
</svg>