<svg width="200" height="200" viewBox="0 0 200 200" version="1.1" xmlns="http://www.w3.org/2000/svg">
  <g fill="currentColor" transform="matrix(1.321206, 0, 0, 1.321206, -6.650379, -5.555652)">
    <path
      d=" M125.582359,143.248947 C124.588005,137.942047 123.344833,133.093155 122.750305,128.165985 C121.622368,118.818230 124.460480,110.771164 130.065002,103.025566 C144.269623,83.394409 147.938293,61.555885 139.639450,38.714394 C133.717224,22.414192 120.549454,13.339520 103.938469,9.856437 C89.151886,6.755903 74.356354,7.382119 60.700481,14.684019 C48.050789,21.447903 38.671051,31.266272 34.993580,45.645714 C34.788261,46.448513 34.323219,47.291691 34.431057,48.051964 C36.465534,62.395741 28.971201,73.166229 21.350794,84.048813 C16.005878,91.681801 16.937551,93.254166 26.421598,93.581711 C30.780138,93.732231 32.182487,95.863297 32.313240,99.855652 C32.503426,105.662659 32.135010,111.452187 32.911797,117.290642 C34.185047,126.860718 40.356106,129.867142 48.826588,130.592758 C52.301777,130.890472 55.821827,130.685425 59.321320,130.671310 C61.798000,130.661331 63.913712,131.732941 64.068420,134.157532 C64.502335,140.957687 64.706635,147.789459 63.905853,154.590469 C63.863247,154.952316 63.240341,155.245819 62.875996,155.581818 C60.179005,155.061188 60.729214,152.927246 60.689938,151.249741 C60.592449,147.085541 60.598434,142.917343 60.647564,138.751755 C60.684807,135.594101 59.524120,134.073013 56.109051,134.706177 C52.285553,135.415085 48.433399,134.755264 44.659920,134.242767 C35.018574,132.933289 29.156187,126.121582 28.658598,116.133308 C28.410366,111.150459 27.954170,106.174416 27.842518,101.189682 C27.779385,98.371109 26.573702,97.299622 23.888182,97.362335 C22.570164,97.393120 21.199150,97.319771 19.931877,96.988464 C14.039576,95.447990 12.025311,91.260132 15.096005,86.028778 C18.290369,80.586746 21.998196,75.443573 25.535854,70.206436 C27.983650,66.582741 30.065538,62.991821 29.700157,58.262684 C27.652994,31.766150 50.084488,10.034784 72.829285,5.917903 C88.904396,3.008255 105.020050,3.203557 120.010323,11.278940 C136.684235,20.261318 145.795654,34.125412 147.424072,53.114830 C149.129684,73.004440 144.665649,90.971695 132.535721,107.035294 C126.462173,115.078453 125.134636,124.179535 127.813713,133.998734 C129.382797,139.749664 130.291565,145.680191 131.516632,151.525909 C131.793350,152.846252 132.310104,154.345718 130.547195,154.884079 C128.532990,155.499222 127.995117,153.946854 127.635933,152.399857 C126.960709,149.491699 126.295692,146.581146 125.582359,143.248947 z" />
    <path
      d=" M71.315956,46.269642 C87.061470,33.276199 108.867722,39.469097 114.483513,58.397221 C117.270416,67.790527 114.925598,76.396004 107.878120,83.067490 C103.136116,87.556488 100.917755,92.284485 101.244415,98.855614 C101.655457,107.124092 97.061890,111.788918 89.521820,111.884918 C82.107864,111.979317 77.458305,107.201668 77.746048,98.925468 C77.958305,92.820541 76.175606,88.136719 71.657608,83.879799 C59.752892,72.663002 59.684986,58.245869 71.315956,46.269642 M81.525520,68.261620 C85.715240,69.820976 86.066086,74.938385 89.697845,77.420387 C91.316582,74.985138 92.658493,72.703094 94.274246,70.634995 C95.233109,69.407692 96.500305,67.542290 98.337234,68.839325 C100.255829,70.194031 98.808296,71.764320 97.833275,73.103142 C97.344276,73.774597 96.729767,74.368713 96.322968,75.083687 C93.611824,79.848686 90.578247,84.499283 91.344009,90.423546 C91.556282,92.065697 91.905495,93.421463 93.810081,93.569817 C95.111092,93.671165 97.122841,93.937897 97.229477,92.396248 C97.714340,85.386238 103.578789,82.197693 107.271843,77.453667 C112.906471,70.215492 113.050140,61.543652 107.893692,53.765854 C102.602341,45.784565 93.183823,42.071877 84.637642,44.011372 C75.753258,46.027611 70.004845,51.456825 67.758102,59.887676 C65.522110,68.278221 68.535049,75.589737 74.964493,81.435188 C77.939911,84.140350 80.836021,86.923607 81.344475,91.225441 C81.573807,93.165833 82.745369,93.725075 84.471352,93.559433 C86.171707,93.396248 86.469704,92.205971 86.647423,90.749413 C87.447174,84.194977 85.033600,78.712585 81.212990,73.626472 C80.010643,72.025871 77.711716,70.340286 81.525520,68.261620 M94.651443,98.332726 C92.154915,98.329063 89.644081,98.160164 87.166420,98.374519 C85.217964,98.543083 82.251266,97.112396 81.666412,100.114861 C81.169632,102.665199 82.904747,104.843979 85.130547,106.288910 C88.497986,108.474968 92.033905,108.306297 94.735741,105.571457 C96.516487,103.768951 99.451782,101.151306 94.651443,98.332726 z" />
    <path
      d=" M68.653290,34.288765 C70.199036,36.571270 74.040855,38.604301 71.258858,40.893250 C68.458008,43.197697 67.285690,38.764050 65.429733,37.318962 C63.979061,36.189434 62.831535,34.280651 64.428673,32.651814 C66.166161,30.879845 67.206512,33.106537 68.653290,34.288765 z" />
    <path
      d=" M112.131279,33.835148 C113.599991,32.737007 114.879356,32.335060 115.843941,33.711575 C116.451866,34.579128 116.062599,35.645702 115.356171,36.425102 C113.625458,38.334583 112.482445,40.950459 109.619843,41.516705 C109.179436,41.603825 108.183952,40.988754 108.132660,40.606247 C107.722557,37.547569 110.407181,36.161160 112.131279,33.835148 z" />
    <path
      d=" M91.315376,23.762947 C93.048416,25.653158 92.212463,27.704506 92.273399,29.611685 C92.320709,31.092297 92.861603,33.400780 90.249146,33.213150 C88.051094,33.055283 88.017830,30.879820 88.138718,29.346968 C88.310966,27.163094 87.127930,24.052757 91.315376,23.762947 z" />
  </g>
</svg>